<?xml version="1.0" encoding="UTF-8" standalone="no"?>
<svg
   xmlns:dc="http://purl.org/dc/elements/1.1/"
   xmlns:cc="http://creativecommons.org/ns#"
   xmlns:rdf="http://www.w3.org/1999/02/22-rdf-syntax-ns#"
   xmlns:svg="http://www.w3.org/2000/svg"
   xmlns="http://www.w3.org/2000/svg"
   xmlns:sodipodi="http://sodipodi.sourceforge.net/DTD/sodipodi-0.dtd"
   xmlns:inkscape="http://www.inkscape.org/namespaces/inkscape"
   width="47.624939mm"
   height="47.624939mm"
   viewBox="0 0 47.624939 47.624939"
   version="1.1"
   id="svg8"
   sodipodi:docname="qrcode-streetcomplete.svg"
   inkscape:version="1.0.2 (e86c870879, 2021-01-15, custom)">
  <defs
     id="defs2" />
  <sodipodi:namedview
     id="base"
     pagecolor="#ffffff"
     bordercolor="#666666"
     borderopacity="1.0"
     inkscape:pageopacity="0.0"
     inkscape:pageshadow="2"
     inkscape:zoom="1.9734476"
     inkscape:cx="102.63079"
     inkscape:cy="90.000863"
     inkscape:document-units="mm"
     inkscape:current-layer="layer1"
     inkscape:document-rotation="0"
     showgrid="false"
     inkscape:window-width="1918"
     inkscape:window-height="1078"
     inkscape:window-x="-1"
     inkscape:window-y="-1"
     inkscape:window-maximized="1"
     fit-margin-top="0"
     fit-margin-left="0"
     fit-margin-right="0"
     fit-margin-bottom="0" />
  <metadata
     id="metadata5">
    <rdf:RDF>
      <cc:Work
         rdf:about="">
        <dc:format>image/svg+xml</dc:format>
        <dc:type
           rdf:resource="http://purl.org/dc/dcmitype/StillImage" />
        <dc:title></dc:title>
      </cc:Work>
    </rdf:RDF>
  </metadata>
  <g
     inkscape:label="Calque 1"
     inkscape:groupmode="layer"
     id="layer1"
     transform="translate(-90.490828,-148.58821)">
    <g
       inkscape:label="QR Code: https://play.google.com/store/apps/details?id=de.westnordost.streetcomplete&amp;hl=fr"
       transform="matrix(0.264583,0,0,0.264583,90.490828,148.58821)"
       id="g842">
      <rect
         x="0"
         y="0"
         width="180"
         height="180"
         style="fill:#ffffff;stroke:none"
         id="rect836" />
      <g
         style="fill:#000000;stroke:none"
         id="g840">
        <path
           d="m 163.6,164 h -3.2 c -0.22091,0 -0.4,-0.17909 -0.4,-0.4 v -3.2 c 0,-0.22091 -0.17909,-0.4 -0.4,-0.4 H 152 v -3.6 c 0,-0.22091 0.17909,-0.4 0.4,-0.4 h 7.2 c 0.22091,0 0.4,-0.17909 0.4,-0.4 v -3.2 c 0,-0.22091 -0.17909,-0.4 -0.4,-0.4 h -3.2 c -0.22091,0 -0.4,-0.17909 -0.4,-0.4 v -3.2 c 0,-0.22091 0.17909,-0.4 0.4,-0.4 h 3.2 c 0.22091,0 0.4,-0.17909 0.4,-0.4 v -3.2 c 0,-0.22091 -0.17909,-0.4 -0.4,-0.4 h -3.2 c -0.22091,0 -0.4,-0.17909 -0.4,-0.4 V 140 h 3.6 c 0.22091,0 0.4,-0.17909 0.4,-0.4 V 136 h 3.6 c 0.22091,0 0.4,0.17909 0.4,0.4 v 27.2 c 0,0.22091 -0.17909,0.4 -0.4,0.4 z m -12,0 h -3.2 c -0.22091,0 -0.4,-0.17909 -0.4,-0.4 V 160 h 4 v 3.6 c 0,0.22091 -0.17909,0.4 -0.4,0.4 z m -20,0 h -3.2 c -0.22091,0 -0.4,-0.17909 -0.4,-0.4 V 160 h 3.6 c 0.22091,0 0.4,0.17909 0.4,0.4 v 3.2 c 0,0.22091 -0.17909,0.4 -0.4,0.4 z m -20,0 h -3.2 c -0.22091,0 -0.4,-0.17909 -0.4,-0.4 v -3.2 c 0,-0.22091 0.17909,-0.4 0.4,-0.4 h 3.6 v 3.6 c 0,0.22091 -0.17909,0.4 -0.4,0.4 z m -16,0 H 92.4 C 92.179086,164 92,163.82091 92,163.6 V 160 h 4 v 3.6 c 0,0.22091 -0.179086,0.4 -0.4,0.4 z m -12,0 h -3.2 c -0.220914,0 -0.4,-0.17909 -0.4,-0.4 v -3.2 c 0,-0.22091 0.179086,-0.4 0.4,-0.4 H 84 v 3.6 c 0,0.22091 -0.179086,0.4 -0.4,0.4 z m -8,0 h -7.2 c -0.220914,0 -0.4,-0.17909 -0.4,-0.4 v -3.2 c 0,-0.22091 0.179086,-0.4 0.4,-0.4 h 3.2 c 0.220914,0 0.4,-0.17909 0.4,-0.4 V 148.4 C 72,148.17909 71.820914,148 71.6,148 H 64.4 C 64.179086,148 64,147.82091 64,147.6 V 140 h 3.6 c 0.220914,0 0.4,0.17909 0.4,0.4 v 3.2 c 0,0.22091 0.179086,0.4 0.4,0.4 h 3.2 c 0.220914,0 0.4,-0.17909 0.4,-0.4 v -3.2 c 0,-0.22091 0.179086,-0.4 0.4,-0.4 H 76 v 7.6 c 0,0.22091 0.179086,0.4 0.4,0.4 h 7.2 c 0.220914,0 0.4,-0.17909 0.4,-0.4 V 144 h 4 v 3.6 c 0,0.22091 0.179086,0.4 0.4,0.4 h 11.2 c 0.220914,0 0.4,0.17909 0.4,0.4 v 11.2 c 0,0.22091 -0.179086,0.4 -0.4,0.4 H 96 v -7.6 c 0,-0.22091 -0.179086,-0.4 -0.4,-0.4 h -3.2 c -0.220914,0 -0.4,0.17909 -0.4,0.4 v 7.6 h -8 v -7.6 c 0,-0.22091 -0.179086,-0.4 -0.4,-0.4 h -3.2 c -0.220914,0 -0.4,0.17909 -0.4,0.4 v 3.2 c 0,0.22091 -0.179086,0.4 -0.4,0.4 h -3.2 c -0.220914,0 -0.4,0.17909 -0.4,0.4 v 7.2 c 0,0.22091 -0.179086,0.4 -0.4,0.4 z m -16,0 H 48.4 c -0.220914,0 -0.4,-0.17909 -0.4,-0.4 v -7.2 c 0,-0.22091 0.179086,-0.4 0.4,-0.4 h 3.2 c 0.220914,0 0.4,0.17909 0.4,0.4 v 3.2 c 0,0.22091 0.179086,0.4 0.4,0.4 h 7.2 c 0.220914,0 0.4,0.17909 0.4,0.4 v 3.2 c 0,0.22091 -0.179086,0.4 -0.4,0.4 z m -16,0 H 16.4 c -0.220914,0 -0.4,-0.17909 -0.4,-0.4 v -27.2 c 0,-0.22091 0.179086,-0.4 0.4,-0.4 h 27.2 c 0.220914,0 0.4,0.17909 0.4,0.4 v 27.2 c 0,0.22091 -0.179086,0.4 -0.4,0.4 z m 104,-4 h -3.2 c -0.22091,0 -0.4,-0.17909 -0.4,-0.4 v -3.2 c 0,-0.22091 -0.17909,-0.4 -0.4,-0.4 h -3.2 c -0.22091,0 -0.4,-0.17909 -0.4,-0.4 V 152 h 7.6 c 0.22091,0 0.4,0.17909 0.4,0.4 v 7.6 z m -20,0 h -3.2 c -0.22091,0 -0.4,-0.17909 -0.4,-0.4 v -7.2 c 0,-0.22091 -0.17909,-0.4 -0.4,-0.4 h -11.2 c -0.22091,0 -0.4,0.17909 -0.4,0.4 v 3.6 h -3.6 c -0.22091,0 -0.4,-0.17909 -0.4,-0.4 v -11.2 c 0,-0.22091 -0.17909,-0.4 -0.4,-0.4 h -3.2 c -0.22091,0 -0.4,-0.17909 -0.4,-0.4 v -3.2 c 0,-0.22091 0.17909,-0.4 0.4,-0.4 h 3.2 c 0.22091,0 0.4,-0.17909 0.4,-0.4 V 136 h 3.6 c 0.22091,0 0.4,0.17909 0.4,0.4 v 11.2 c 0,0.22091 0.17909,0.4 0.4,0.4 h 7.2 c 0.22091,0 0.4,-0.17909 0.4,-0.4 V 144 h 3.6 c 0.22091,0 0.4,-0.17909 0.4,-0.4 V 140 h 3.6 c 0.22091,0 0.4,-0.17909 0.4,-0.4 v -3.2 c 0,-0.22091 -0.17909,-0.4 -0.4,-0.4 H 124 v -7.6 c 0,-0.22091 0.17909,-0.4 0.4,-0.4 h 7.2 c 0.22091,0 0.4,-0.17909 0.4,-0.4 v -3.2 c 0,-0.22091 -0.17909,-0.4 -0.4,-0.4 h -7.2 c -0.22091,0 -0.4,-0.17909 -0.4,-0.4 v -3.2 c 0,-0.22091 -0.17909,-0.4 -0.4,-0.4 h -3.2 c -0.22091,0 -0.4,0.17909 -0.4,0.4 v 3.2 c 0,0.22091 -0.17909,0.4 -0.4,0.4 H 116 v -8 h 11.6 c 0.22091,0 0.4,-0.17909 0.4,-0.4 V 112 h 3.6 c 0.22091,0 0.4,0.17909 0.4,0.4 v 7.2 c 0,0.22091 0.17909,0.4 0.4,0.4 h 3.2 c 0.22091,0 0.4,0.17909 0.4,0.4 v 3.2 c 0,0.22091 0.17909,0.4 0.4,0.4 h 7.2 c 0.22091,0 0.4,-0.17909 0.4,-0.4 V 116 h 3.6 c 0.22091,0 0.4,-0.17909 0.4,-0.4 v -3.2 c 0,-0.22091 -0.17909,-0.4 -0.4,-0.4 h -3.2 c -0.22091,0 -0.4,0.17909 -0.4,0.4 v 3.6 h -7.6 c -0.22091,0 -0.4,-0.17909 -0.4,-0.4 v -3.2 c 0,-0.22091 0.17909,-0.4 0.4,-0.4 h 3.2 c 0.22091,0 0.4,-0.17909 0.4,-0.4 v -11.2 c 0,-0.22091 -0.17909,-0.4 -0.4,-0.4 h -7.2 c -0.22091,0 -0.4,-0.179086 -0.4,-0.4 v -7.2 c 0,-0.220914 -0.17909,-0.4 -0.4,-0.4 h -3.2 c -0.22091,0 -0.4,0.179086 -0.4,0.4 v 11.2 c 0,0.22091 0.17909,0.4 0.4,0.4 h 3.2 c 0.22091,0 0.4,0.17909 0.4,0.4 v 3.2 c 0,0.22091 -0.17909,0.4 -0.4,0.4 h -3.2 c -0.22091,0 -0.4,0.17909 -0.4,0.4 v 3.6 h -3.6 c -0.22091,0 -0.4,-0.17909 -0.4,-0.4 v -11.2 c 0,-0.22091 -0.17909,-0.4 -0.4,-0.4 h -3.2 c -0.22091,0 -0.4,-0.179086 -0.4,-0.4 V 96 h 3.6 c 0.22091,0 0.4,-0.179086 0.4,-0.4 V 80 h 3.6 c 0.22091,0 0.4,0.179086 0.4,0.4 v 7.2 c 0,0.220914 0.17909,0.4 0.4,0.4 h 3.2 c 0.22091,0 0.4,-0.179086 0.4,-0.4 v -3.2 c 0,-0.220914 0.17909,-0.4 0.4,-0.4 h 3.6 v 3.6 c 0,0.220914 0.17909,0.4 0.4,0.4 h 3.6 v 3.6 c 0,0.220914 -0.17909,0.4 -0.4,0.4 h -3.2 c -0.22091,0 -0.4,0.179086 -0.4,0.4 v 3.2 c 0,0.220914 0.17909,0.4 0.4,0.4 H 148 v 8 h -3.6 c -0.22091,0 -0.4,0.17909 -0.4,0.4 v 3.2 c 0,0.22091 0.17909,0.4 0.4,0.4 h 3.2 c 0.22091,0 0.4,-0.17909 0.4,-0.4 V 104 h 4 v 3.6 c 0,0.22091 0.17909,0.4 0.4,0.4 h 7.2 c 0.22091,0 0.4,-0.17909 0.4,-0.4 V 104 h 3.6 c 0.22091,0 0.4,0.17909 0.4,0.4 v 11.2 c 0,0.22091 -0.17909,0.4 -0.4,0.4 H 160 v -3.6 c 0,-0.22091 -0.17909,-0.4 -0.4,-0.4 h -7.2 c -0.22091,0 -0.4,0.17909 -0.4,0.4 v 3.2 c 0,0.22091 0.17909,0.4 0.4,0.4 h 7.6 v 3.6 c 0,0.22091 0.17909,0.4 0.4,0.4 h 3.2 c 0.22091,0 0.4,0.17909 0.4,0.4 v 7.2 c 0,0.22091 -0.17909,0.4 -0.4,0.4 H 160 v -3.6 c 0,-0.22091 -0.17909,-0.4 -0.4,-0.4 h -3.2 c -0.22091,0 -0.4,0.17909 -0.4,0.4 v 3.2 c 0,0.22091 0.17909,0.4 0.4,0.4 h 3.6 v 8 h -3.6 c -0.22091,0 -0.4,0.17909 -0.4,0.4 v 3.6 h -4 v -7.6 c 0,-0.22091 -0.17909,-0.4 -0.4,-0.4 h -3.2 c -0.22091,0 -0.4,0.17909 -0.4,0.4 v 7.2 c 0,0.22091 0.17909,0.4 0.4,0.4 h 3.6 v 3.6 c 0,0.22091 -0.17909,0.4 -0.4,0.4 h -3.2 c -0.22091,0 -0.4,0.17909 -0.4,0.4 v 3.2 c 0,0.22091 -0.17909,0.4 -0.4,0.4 h -7.2 c -0.22091,0 -0.4,0.17909 -0.4,0.4 v 3.6 h -4 v -3.6 c 0,-0.22091 -0.17909,-0.4 -0.4,-0.4 h -7.2 c -0.22091,0 -0.4,0.17909 -0.4,0.4 V 160 Z m -12,0 H 112 v -4 h 3.6 c 0.22091,0 0.4,0.17909 0.4,0.4 v 3.2 c 0,0.22091 -0.17909,0.4 -0.4,0.4 z M 40,159.6 V 140.4 C 40,140.17909 39.820914,140 39.6,140 H 20.4 c -0.220914,0 -0.4,0.17909 -0.4,0.4 v 19.2 c 0,0.22091 0.179086,0.4 0.4,0.4 h 19.2 c 0.220914,0 0.4,-0.17909 0.4,-0.4 z m 95.6,-3.6 h -3.2 c -0.22091,0 -0.4,-0.17909 -0.4,-0.4 v -3.2 c 0,-0.22091 0.17909,-0.4 0.4,-0.4 h 3.6 v 3.6 c 0,0.22091 -0.17909,0.4 -0.4,0.4 z m -68,0 h -3.2 c -0.220914,0 -0.4,-0.17909 -0.4,-0.4 v -3.2 c 0,-0.22091 0.179086,-0.4 0.4,-0.4 h 3.2 c 0.220914,0 0.4,0.17909 0.4,0.4 v 3.2 c 0,0.22091 -0.179086,0.4 -0.4,0.4 z m -32,0 H 24.4 c -0.220914,0 -0.4,-0.17909 -0.4,-0.4 v -11.2 c 0,-0.22091 0.179086,-0.4 0.4,-0.4 h 11.2 c 0.220914,0 0.4,0.17909 0.4,0.4 v 11.2 c 0,0.22091 -0.179086,0.4 -0.4,0.4 z m 20,-4 h -7.2 c -0.220914,0 -0.4,-0.17909 -0.4,-0.4 v -7.2 c 0,-0.22091 0.179086,-0.4 0.4,-0.4 H 52 v 3.6 c 0,0.22091 0.179086,0.4 0.4,0.4 H 56 v 3.6 c 0,0.22091 -0.179086,0.4 -0.4,0.4 z m 4,-4 H 56 v -3.6 C 56,144.17909 55.820914,144 55.6,144 H 52 v -3.6 c 0,-0.22091 0.179086,-0.4 0.4,-0.4 h 3.2 c 0.220914,0 0.4,-0.17909 0.4,-0.4 v -7.2 C 56,132.17909 55.820914,132 55.6,132 H 52 v -3.6 c 0,-0.22091 0.179086,-0.4 0.4,-0.4 H 60 v 3.6 c 0,0.22091 0.179086,0.4 0.4,0.4 h 11.2 c 0.220914,0 0.4,-0.17909 0.4,-0.4 v -3.2 c 0,-0.22091 0.179086,-0.4 0.4,-0.4 h 3.2 c 0.220914,0 0.4,-0.17909 0.4,-0.4 v -7.2 c 0,-0.22091 -0.179086,-0.4 -0.4,-0.4 h -3.2 c -0.220914,0 -0.4,0.17909 -0.4,0.4 v 3.2 c 0,0.22091 -0.179086,0.4 -0.4,0.4 h -7.2 c -0.220914,0 -0.4,0.17909 -0.4,0.4 v 3.2 c 0,0.22091 -0.179086,0.4 -0.4,0.4 H 60 v -7.6 c 0,-0.22091 0.179086,-0.4 0.4,-0.4 h 7.2 c 0.220914,0 0.4,-0.17909 0.4,-0.4 v -3.2 C 68,116.17909 67.820914,116 67.6,116 H 48.4 c -0.220914,0 -0.4,0.17909 -0.4,0.4 v 3.2 c 0,0.22091 0.179086,0.4 0.4,0.4 h 7.2 c 0.220914,0 0.4,0.17909 0.4,0.4 v 3.2 c 0,0.22091 -0.179086,0.4 -0.4,0.4 h -7.2 c -0.220914,0 -0.4,0.17909 -0.4,0.4 v 3.2 c 0,0.22091 -0.179086,0.4 -0.4,0.4 H 44 v -3.6 C 44,124.17909 43.820914,124 43.6,124 H 40.4 C 40.179086,124 40,123.82091 40,123.6 V 120 h 3.6 c 0.220914,0 0.4,-0.17909 0.4,-0.4 v -3.2 c 0,-0.22091 -0.179086,-0.4 -0.4,-0.4 h -3.2 c -0.220914,0 -0.4,0.17909 -0.4,0.4 v 3.6 h -4 v -3.6 c 0,-0.22091 -0.179086,-0.4 -0.4,-0.4 h -3.2 c -0.220914,0 -0.4,0.17909 -0.4,0.4 v 3.6 h -3.6 c -0.220914,0 -0.4,0.17909 -0.4,0.4 v 7.2 c 0,0.22091 0.179086,0.4 0.4,0.4 H 32 v 3.6 c 0,0.22091 -0.179086,0.4 -0.4,0.4 h -7.2 c -0.220914,0 -0.4,-0.17909 -0.4,-0.4 v -7.2 c 0,-0.22091 -0.179086,-0.4 -0.4,-0.4 h -3.2 c -0.220914,0 -0.4,0.17909 -0.4,0.4 v 7.2 c 0,0.22091 -0.179086,0.4 -0.4,0.4 h -3.2 c -0.220914,0 -0.4,-0.17909 -0.4,-0.4 v -15.2 c 0,-0.22091 0.179086,-0.4 0.4,-0.4 h 3.2 c 0.220914,0 0.4,0.17909 0.4,0.4 v 3.2 c 0,0.22091 0.179086,0.4 0.4,0.4 h 3.2 c 0.220914,0 0.4,-0.17909 0.4,-0.4 v -7.2 c 0,-0.22091 -0.179086,-0.4 -0.4,-0.4 h -3.2 c -0.220914,0 -0.4,-0.17909 -0.4,-0.4 v -3.2 c 0,-0.22091 0.179086,-0.4 0.4,-0.4 h 3.2 c 0.220914,0 0.4,-0.17909 0.4,-0.4 V 104 h 4 v 7.6 c 0,0.22091 0.179086,0.4 0.4,0.4 h 3.2 c 0.220914,0 0.4,-0.17909 0.4,-0.4 V 104 h 11.6 c 0.220914,0 0.4,0.17909 0.4,0.4 v 3.2 c 0,0.22091 -0.179086,0.4 -0.4,0.4 h -7.2 c -0.220914,0 -0.4,0.17909 -0.4,0.4 v 3.2 c 0,0.22091 0.179086,0.4 0.4,0.4 h 11.2 c 0.220914,0 0.4,-0.17909 0.4,-0.4 V 96.4 C 48,96.179086 48.179086,96 48.4,96 h 3.2 c 0.220914,0 0.4,0.179086 0.4,0.4 v 15.2 c 0,0.22091 0.179086,0.4 0.4,0.4 h 7.2 c 0.220914,0 0.4,-0.17909 0.4,-0.4 v -7.2 c 0,-0.22091 0.179086,-0.4 0.4,-0.4 H 64 v 3.6 c 0,0.22091 0.179086,0.4 0.4,0.4 h 3.2 c 0.220914,0 0.4,-0.17909 0.4,-0.4 v -3.2 C 68,104.17909 67.820914,104 67.6,104 H 64 v -4 h 3.6 c 0.220914,0 0.4,-0.179086 0.4,-0.4 V 92.4 C 68,92.179086 67.820914,92 67.6,92 H 64 v -4 h 11.6 c 0.220914,0 0.4,0.179086 0.4,0.4 V 92 H 72.4 C 72.179086,92 72,92.179086 72,92.4 v 23.2 c 0,0.22091 0.179086,0.4 0.4,0.4 h 3.2 c 0.220914,0 0.4,-0.17909 0.4,-0.4 v -11.2 c 0,-0.22091 0.179086,-0.4 0.4,-0.4 H 80 v 3.6 c 0,0.22091 0.179086,0.4 0.4,0.4 h 3.2 c 0.220914,0 0.4,-0.17909 0.4,-0.4 V 104 h 3.6 c 0.220914,0 0.4,0.17909 0.4,0.4 v 3.2 c 0,0.22091 0.179086,0.4 0.4,0.4 h 3.2 c 0.220914,0 0.4,0.17909 0.4,0.4 V 112 H 80.4 c -0.220914,0 -0.4,0.17909 -0.4,0.4 v 3.2 c 0,0.22091 0.179086,0.4 0.4,0.4 h 3.2 c 0.220914,0 0.4,0.17909 0.4,0.4 v 7.2 c 0,0.22091 -0.179086,0.4 -0.4,0.4 h -3.2 c -0.220914,0 -0.4,0.17909 -0.4,0.4 V 140 h -4 v -3.6 C 76,136.17909 75.820914,136 75.6,136 H 64.4 c -0.220914,0 -0.4,0.17909 -0.4,0.4 v 3.6 h -3.6 c -0.220914,0 -0.4,0.17909 -0.4,0.4 v 7.2 c 0,0.22091 -0.179086,0.4 -0.4,0.4 z m 84.4,-4.4 v -11.2 c 0,-0.22091 -0.17909,-0.4 -0.4,-0.4 h -11.2 c -0.22091,0 -0.4,0.17909 -0.4,0.4 v 11.2 c 0,0.22091 0.17909,0.4 0.4,0.4 h 11.2 c 0.22091,0 0.4,-0.17909 0.4,-0.4 z m -24.4,0.4 h -3.2 c -0.22091,0 -0.4,-0.17909 -0.4,-0.4 v -11.2 c 0,-0.22091 -0.17909,-0.4 -0.4,-0.4 h -3.2 c -0.22091,0 -0.4,-0.17909 -0.4,-0.4 v -7.2 c 0,-0.22091 0.17909,-0.4 0.4,-0.4 h 3.6 v 3.6 c 0,0.22091 0.17909,0.4 0.4,0.4 h 3.2 c 0.22091,0 0.4,0.17909 0.4,0.4 v 7.2 c 0,0.22091 0.17909,0.4 0.4,0.4 h 3.6 v 4 h -3.6 c -0.22091,0 -0.4,0.17909 -0.4,0.4 v 3.6 z m -28,0 H 88 v -3.6 c 0,-0.22091 0.179086,-0.4 0.4,-0.4 H 92 v 3.6 c 0,0.22091 -0.179086,0.4 -0.4,0.4 z m -8,0 H 80.4 C 80.179086,144 80,143.82091 80,143.6 V 140 h 3.6 c 0.220914,0 0.4,0.17909 0.4,0.4 v 3.6 z m 56,-4 h -3.2 c -0.22091,0 -0.4,-0.17909 -0.4,-0.4 v -3.2 c 0,-0.22091 0.17909,-0.4 0.4,-0.4 h 3.2 c 0.22091,0 0.4,0.17909 0.4,0.4 v 3.2 c 0,0.22091 -0.17909,0.4 -0.4,0.4 z m -40,0 H 92 v -3.6 c 0,-0.22091 -0.179086,-0.4 -0.4,-0.4 h -7.2 c -0.220914,0 -0.4,-0.17909 -0.4,-0.4 v -3.2 c 0,-0.22091 0.179086,-0.4 0.4,-0.4 h 3.2 c 0.220914,0 0.4,-0.17909 0.4,-0.4 v -3.2 c 0,-0.22091 0.179086,-0.4 0.4,-0.4 H 92 v 3.6 c 0,0.22091 0.179086,0.4 0.4,0.4 h 11.2 c 0.22091,0 0.4,-0.17909 0.4,-0.4 V 124 h 3.6 c 0.22091,0 0.4,0.17909 0.4,0.4 V 136 h -7.6 c -0.22091,0 -0.4,0.17909 -0.4,0.4 v 3.2 c 0,0.22091 -0.179086,0.4 -0.4,0.4 z m -48,-4 h -3.2 c -0.220914,0 -0.4,-0.17909 -0.4,-0.4 v -3.2 c 0,-0.22091 0.179086,-0.4 0.4,-0.4 H 52 v 3.6 c 0,0.22091 -0.179086,0.4 -0.4,0.4 z m -8,-4 h -3.2 c -0.220914,0 -0.4,-0.17909 -0.4,-0.4 v -3.2 c 0,-0.22091 0.179086,-0.4 0.4,-0.4 H 44 v 3.6 c 0,0.22091 -0.179086,0.4 -0.4,0.4 z m 56,-4 H 92 v -8 h 11.6 c 0.22091,0 0.4,0.17909 0.4,0.4 v 3.6 h -3.6 c -0.22091,0 -0.4,0.17909 -0.4,0.4 v 3.2 c 0,0.22091 -0.179086,0.4 -0.4,0.4 z m -64,0 H 32 v -8 h 4 v 7.6 c 0,0.22091 -0.179086,0.4 -0.4,0.4 z m 76,-8 h -3.2 c -0.22091,0 -0.4,-0.17909 -0.4,-0.4 v -7.2 c 0,-0.22091 -0.17909,-0.4 -0.4,-0.4 h -3.2 c -0.22091,0 -0.4,-0.17909 -0.4,-0.4 v -3.2 c 0,-0.22091 0.17909,-0.4 0.4,-0.4 h 3.2 c 0.22091,0 0.4,-0.17909 0.4,-0.4 V 96 h 3.6 c 0.22091,0 0.4,0.179086 0.4,0.4 v 3.2 c 0,0.220914 0.17909,0.4 0.4,0.4 h 3.2 c 0.22091,0 0.4,0.17909 0.4,0.4 v 7.2 c 0,0.22091 -0.17909,0.4 -0.4,0.4 h -3.2 c -0.22091,0 -0.4,0.17909 -0.4,0.4 v 3.2 c 0,0.22091 0.17909,0.4 0.4,0.4 h 3.2 c 0.22091,0 0.4,0.17909 0.4,0.4 v 3.6 h -3.6 c -0.22091,0 -0.4,0.17909 -0.4,0.4 v 3.2 c 0,0.22091 -0.17909,0.4 -0.4,0.4 z m -20,0 h -3.2 c -0.220914,0 -0.4,-0.17909 -0.4,-0.4 v -3.2 c 0,-0.22091 0.179086,-0.4 0.4,-0.4 H 92 v 4 z m 4,-4 H 92 v -4 h 4 v 3.6 c 0,0.22091 -0.179086,0.4 -0.4,0.4 z m 4,-4 H 96 v -8 h 3.6 c 0.220914,0 0.4,0.17909 0.4,0.4 v 7.2 c 0,0.22091 -0.179086,0.4 -0.4,0.4 z m 60,-8 H 152 v -3.6 c 0,-0.22091 0.17909,-0.4 0.4,-0.4 h 3.2 c 0.22091,0 0.4,-0.179086 0.4,-0.4 v -3.2 c 0,-0.220914 0.17909,-0.4 0.4,-0.4 h 3.2 c 0.22091,0 0.4,-0.179086 0.4,-0.4 v -7.2 c 0,-0.220914 0.17909,-0.4 0.4,-0.4 h 3.2 c 0.22091,0 0.4,0.179086 0.4,0.4 v 11.2 c 0,0.220914 -0.17909,0.4 -0.4,0.4 h -3.2 c -0.22091,0 -0.4,0.17909 -0.4,0.4 v 3.6 z m -64,0 H 92.4 C 92.179086,104 92,103.82091 92,103.6 V 96.4 C 92,96.179086 92.179086,96 92.4,96 h 3.2 C 95.820914,96 96,95.820914 96,95.6 V 92.4 C 96,92.179086 95.820914,92 95.6,92 H 92.4 C 92.179086,92 92,91.820914 92,91.6 V 88.4 C 92,88.179086 91.820914,88 91.6,88 H 88.4 C 88.179086,88 88,88.179086 88,88.4 v 3.2 C 88,91.820914 87.820914,92 87.6,92 H 84.4 C 84.179086,92 84,92.179086 84,92.4 v 3.2 c 0,0.220914 0.179086,0.4 0.4,0.4 h 3.2 c 0.220914,0 0.4,0.179086 0.4,0.4 v 3.2 c 0,0.220914 -0.179086,0.4 -0.4,0.4 h -3.2 c -0.220914,0 -0.4,0.17909 -0.4,0.4 V 104 H 80 V 96.4 C 80,96.179086 79.820914,96 79.6,96 H 76.4 C 76.179086,96 76,95.820914 76,95.6 V 92 h 3.6 C 79.820914,92 80,91.820914 80,91.6 V 88.4 C 80,88.179086 80.179086,88 80.4,88 h 3.2 C 83.820914,88 84,87.820914 84,87.6 V 84.4 C 84,84.179086 84.179086,84 84.4,84 H 95.6 C 95.820914,84 96,83.820914 96,83.6 V 80.4 C 96,80.179086 96.179086,80 96.4,80 h 3.2 c 0.220914,0 0.4,0.179086 0.4,0.4 v 3.2 c 0,0.220914 0.17909,0.4 0.4,0.4 h 3.2 c 0.22091,0 0.4,-0.179086 0.4,-0.4 v -7.2 c 0,-0.220914 0.17909,-0.4 0.4,-0.4 h 3.2 c 0.22091,0 0.4,0.179086 0.4,0.4 v 3.2 c 0,0.220914 0.17909,0.4 0.4,0.4 H 120 v 3.6 c 0,0.220914 -0.17909,0.4 -0.4,0.4 h -11.2 c -0.22091,0 -0.4,0.179086 -0.4,0.4 V 88 h -7.6 c -0.22091,0 -0.4,0.179086 -0.4,0.4 v 11.2 c 0,0.220914 -0.179086,0.4 -0.4,0.4 h -3.2 c -0.220914,0 -0.4,0.17909 -0.4,0.4 v 3.6 z m -64,0 H 28 v -4 h 4 v 4 z m -8,0 h -3.2 c -0.220914,0 -0.4,-0.17909 -0.4,-0.4 v -3.2 c 0,-0.22091 0.179086,-0.4 0.4,-0.4 H 24 v 4 z m 40,-4 H 56.4 C 56.179086,100 56,99.820914 56,99.6 V 92 h 8 v 8 z m -20,0 H 32 V 96.4 C 32,96.179086 31.820914,96 31.6,96 H 28.4 C 28.179086,96 28,96.179086 28,96.4 V 100 H 24 V 96.4 C 24,96.179086 23.820914,96 23.6,96 H 16.4 C 16.179086,96 16,95.820914 16,95.6 V 88.4 C 16,88.179086 16.179086,88 16.4,88 H 24 v 3.6 c 0,0.220914 0.179086,0.4 0.4,0.4 h 7.2 C 31.820914,92 32,91.820914 32,91.6 V 88 H 43.6 C 43.820914,88 44,87.820914 44,87.6 V 84.4 C 44,84.179086 43.820914,84 43.6,84 H 36.4 C 36.179086,84 36,83.820914 36,83.6 V 80 h 7.6 C 43.820914,80 44,79.820914 44,79.6 V 76 h 8 v 3.6 c 0,0.220914 0.179086,0.4 0.4,0.4 H 56 V 92 H 40.4 C 40.179086,92 40,92.179086 40,92.4 v 3.2 c 0,0.220914 0.179086,0.4 0.4,0.4 h 3.2 c 0.220914,0 0.4,0.179086 0.4,0.4 v 3.2 c 0,0.220914 -0.179086,0.4 -0.4,0.4 z m 108,-4 H 148 v -3.6 c 0,-0.220914 0.17909,-0.4 0.4,-0.4 h 3.2 c 0.22091,0 0.4,0.179086 0.4,0.4 v 3.2 c 0,0.220914 -0.17909,0.4 -0.4,0.4 z m -32,0 h -3.2 c -0.22091,0 -0.4,-0.179086 -0.4,-0.4 v -7.2 c 0,-0.220914 0.17909,-0.4 0.4,-0.4 h 3.2 c 0.22091,0 0.4,0.179086 0.4,0.4 V 96 Z m -12,0 h -3.2 c -0.22091,0 -0.4,-0.179086 -0.4,-0.4 v -3.2 c 0,-0.220914 0.17909,-0.4 0.4,-0.4 h 3.6 v 4 z m 4,-4 H 108 v -4 h 3.6 c 0.22091,0 0.4,0.179086 0.4,0.4 v 3.2 c 0,0.220914 -0.17909,0.4 -0.4,0.4 z m 40,-4 h -3.2 C 148.17909,88 148,87.820914 148,87.6 V 80 h 3.6 c 0.22091,0 0.4,-0.179086 0.4,-0.4 v -3.2 c 0,-0.220914 0.17909,-0.4 0.4,-0.4 h 3.6 v 3.6 c 0,0.220914 0.17909,0.4 0.4,0.4 h 3.2 c 0.22091,0 0.4,-0.179086 0.4,-0.4 V 76.4 C 160,76.179086 159.82091,76 159.6,76 H 156 v -3.6 c 0,-0.220914 -0.17909,-0.4 -0.4,-0.4 h -7.2 c -0.22091,0 -0.4,0.179086 -0.4,0.4 V 80 h -8 v -3.6 c 0,-0.220914 0.17909,-0.4 0.4,-0.4 h 3.2 c 0.22091,0 0.4,-0.179086 0.4,-0.4 V 68 h 3.6 c 0.22091,0 0.4,-0.179086 0.4,-0.4 V 64 h 4 v 3.6 c 0,0.220914 0.17909,0.4 0.4,0.4 h 3.2 c 0.22091,0 0.4,-0.179086 0.4,-0.4 V 64 h 7.6 c 0.22091,0 0.4,0.179086 0.4,0.4 v 3.2 c 0,0.220914 -0.17909,0.4 -0.4,0.4 h -3.2 c -0.22091,0 -0.4,0.179086 -0.4,0.4 v 3.2 c 0,0.220914 0.17909,0.4 0.4,0.4 h 3.2 c 0.22091,0 0.4,0.179086 0.4,0.4 v 11.2 c 0,0.220914 -0.17909,0.4 -0.4,0.4 h -11.2 c -0.22091,0 -0.4,0.179086 -0.4,0.4 v 3.2 c 0,0.220914 -0.17909,0.4 -0.4,0.4 z m -8,0 H 140 v -4 h 3.6 c 0.22091,0 0.4,0.179086 0.4,0.4 v 3.2 c 0,0.220914 -0.17909,0.4 -0.4,0.4 z m -80,0 H 60.4 C 60.179086,88 60,87.820914 60,87.6 V 80 h 3.6 C 63.820914,80 64,79.820914 64,79.6 V 76.4 C 64,76.179086 64.179086,76 64.4,76 h 7.2 C 71.820914,76 72,75.820914 72,75.6 V 72.4 C 72,72.179086 72.179086,72 72.4,72 h 7.2 c 0.220914,0 0.4,0.179086 0.4,0.4 V 76 H 76.4 C 76.179086,76 76,76.179086 76,76.4 V 80 H 68.4 C 68.179086,80 68,80.179086 68,80.4 v 3.2 C 68,83.820914 67.820914,84 67.6,84 H 64.4 C 64.179086,84 64,84.179086 64,84.4 V 88 Z M 52,87.6 V 84.4 C 52,84.179086 51.820914,84 51.6,84 H 48.4 C 48.179086,84 48,84.179086 48,84.4 v 3.2 c 0,0.220914 0.179086,0.4 0.4,0.4 h 3.2 C 51.820914,88 52,87.820914 52,87.6 Z M 31.6,88 H 24 V 80.4 C 24,80.179086 23.820914,80 23.6,80 H 16.4 C 16.179086,80 16,79.820914 16,79.6 V 60.4 C 16,60.179086 16.179086,60 16.4,60 H 20 v 3.6 c 0,0.220914 0.179086,0.4 0.4,0.4 h 3.2 C 23.820914,64 24,63.820914 24,63.6 V 60.4 C 24,60.179086 23.820914,60 23.6,60 H 20 v -4 h 8 v 3.6 c 0,0.220914 0.179086,0.4 0.4,0.4 h 3.2 C 31.820914,60 32,59.820914 32,59.6 V 56 h 12 v 4 H 40.4 C 40.179086,60 40,60.179086 40,60.4 v 3.2 c 0,0.220914 0.179086,0.4 0.4,0.4 H 44 v 4 H 36.4 C 36.179086,68 36,68.179086 36,68.4 V 80 H 28.4 C 28.179086,80 28,80.179086 28,80.4 v 3.2 c 0,0.220914 0.179086,0.4 0.4,0.4 h 3.2 c 0.220914,0 0.4,0.179086 0.4,0.4 V 88 Z m 108,-4 H 136 v -3.6 c 0,-0.220914 0.17909,-0.4 0.4,-0.4 h 3.6 v 4 z m -60,0 H 76.4 C 76.179086,84 76,83.820914 76,83.6 V 80 h 4 v 3.6 c 0,0.220914 -0.179086,0.4 -0.4,0.4 z m 44,-4 H 120 v -3.6 c 0,-0.220914 -0.17909,-0.4 -0.4,-0.4 h -7.2 C 112.17909,76 112,75.820914 112,75.6 V 72 h 3.6 c 0.22091,0 0.4,-0.179086 0.4,-0.4 V 68 h 12 v 7.6 c 0,0.220914 -0.17909,0.4 -0.4,0.4 h -3.2 c -0.22091,0 -0.4,0.179086 -0.4,0.4 V 80 Z m -32,0 H 88.4 C 88.179086,80 88,79.820914 88,79.6 V 76.4 C 88,76.179086 88.179086,76 88.4,76 H 92 v 3.6 c 0,0.220914 -0.179086,0.4 -0.4,0.4 z m -8,0 H 80 v -4 h 3.6 c 0.220914,0 0.4,0.179086 0.4,0.4 v 3.2 c 0,0.220914 -0.179086,0.4 -0.4,0.4 z m -24,0 H 56 v -4 h 3.6 c 0.220914,0 0.4,0.179086 0.4,0.4 V 80 Z m 76,-4 h -3.2 c -0.22091,0 -0.4,-0.179086 -0.4,-0.4 v -3.2 c 0,-0.220914 0.17909,-0.4 0.4,-0.4 h 3.2 c 0.22091,0 0.4,0.179086 0.4,0.4 v 3.2 c 0,0.220914 -0.17909,0.4 -0.4,0.4 z m -36,0 H 92 v -4 h 8 v 3.6 c 0,0.220914 -0.179086,0.4 -0.4,0.4 z m -44,0 H 52 V 68.4 C 52,68.179086 52.179086,68 52.4,68 h 7.2 c 0.220914,0 0.4,0.179086 0.4,0.4 v 3.2 C 60,71.820914 59.820914,72 59.6,72 H 56.4 C 56.179086,72 56,72.179086 56,72.4 V 76 Z m -12,0 H 40.4 C 40.179086,76 40,75.820914 40,75.6 V 72.4 C 40,72.179086 40.179086,72 40.4,72 H 44 v 4 z M 24,75.6 V 72.4 C 24,72.179086 23.820914,72 23.6,72 H 20.4 C 20.179086,72 20,72.179086 20,72.4 v 3.2 c 0,0.220914 0.179086,0.4 0.4,0.4 h 3.2 C 23.820914,76 24,75.820914 24,75.6 Z M 111.6,72 h -3.2 c -0.22091,0 -0.4,-0.179086 -0.4,-0.4 v -7.2 c 0,-0.220914 -0.17909,-0.4 -0.4,-0.4 h -3.2 C 104.17909,64 104,63.820914 104,63.6 V 60.4 C 104,60.179086 103.82091,60 103.6,60 H 100 v -3.6 c 0,-0.220914 0.17909,-0.4 0.4,-0.4 h 7.2 c 0.22091,0 0.4,-0.179086 0.4,-0.4 v -7.2 c 0,-0.220914 -0.17909,-0.4 -0.4,-0.4 h -3.2 C 104.17909,48 104,47.820914 104,47.6 V 40.4 C 104,40.179086 103.82091,40 103.6,40 H 100 V 32.4 C 100,32.179086 99.820914,32 99.6,32 H 96 V 28.4 C 96,28.179086 96.179086,28 96.4,28 h 3.2 c 0.220914,0 0.4,-0.179086 0.4,-0.4 v -3.2 c 0,-0.220914 0.17909,-0.4 0.4,-0.4 h 3.6 v 7.6 c 0,0.220914 0.17909,0.4 0.4,0.4 h 3.2 c 0.22091,0 0.4,0.179086 0.4,0.4 v 3.2 c 0,0.220914 0.17909,0.4 0.4,0.4 h 11.2 c 0.22091,0 0.4,0.179086 0.4,0.4 V 40 h -3.6 c -0.22091,0 -0.4,0.179086 -0.4,0.4 V 44 h -4 v -3.6 c 0,-0.220914 -0.17909,-0.4 -0.4,-0.4 h -3.2 c -0.22091,0 -0.4,0.179086 -0.4,0.4 v 3.2 c 0,0.220914 0.17909,0.4 0.4,0.4 h 3.6 v 3.6 c 0,0.220914 0.17909,0.4 0.4,0.4 h 3.6 v 3.6 c 0,0.220914 0.17909,0.4 0.4,0.4 h 7.2 c 0.22091,0 0.4,-0.179086 0.4,-0.4 v -3.2 c 0,-0.220914 0.17909,-0.4 0.4,-0.4 h 7.2 c 0.22091,0 0.4,0.179086 0.4,0.4 v 3.2 c 0,0.220914 -0.17909,0.4 -0.4,0.4 h -3.2 c -0.22091,0 -0.4,0.179086 -0.4,0.4 v 3.2 c 0,0.220914 0.17909,0.4 0.4,0.4 h 3.2 c 0.22091,0 0.4,0.179086 0.4,0.4 v 3.2 c 0,0.220914 -0.17909,0.4 -0.4,0.4 h -3.2 c -0.22091,0 -0.4,0.179086 -0.4,0.4 V 64 h -7.6 C 120.17909,64 120,63.820914 120,63.6 V 60 h 3.6 c 0.22091,0 0.4,-0.179086 0.4,-0.4 v -3.2 c 0,-0.220914 -0.17909,-0.4 -0.4,-0.4 h -3.2 c -0.22091,0 -0.4,0.179086 -0.4,0.4 V 60 h -3.6 c -0.22091,0 -0.4,-0.179086 -0.4,-0.4 v -3.2 c 0,-0.220914 -0.17909,-0.4 -0.4,-0.4 h -3.2 c -0.22091,0 -0.4,0.179086 -0.4,0.4 v 7.2 c 0,0.220914 0.17909,0.4 0.4,0.4 h 3.2 c 0.22091,0 0.4,0.179086 0.4,0.4 V 68 h -3.6 c -0.22091,0 -0.4,0.179086 -0.4,0.4 V 72 Z m -8,0 H 100 v -4 h 3.6 c 0.22091,0 0.4,0.179086 0.4,0.4 v 3.2 c 0,0.220914 -0.17909,0.4 -0.4,0.4 z m -12,0 H 84.4 C 84.179086,72 84,71.820914 84,71.6 V 68.4 C 84,68.179086 84.179086,68 84.4,68 H 92 v 4 z m -24,0 H 64.4 C 64.179086,72 64,71.820914 64,71.6 V 68.4 C 64,68.179086 64.179086,68 64.4,68 H 68 v 3.6 c 0,0.220914 -0.179086,0.4 -0.4,0.4 z m -20,0 H 44 v -4 h 3.6 c 0.220914,0 0.4,0.179086 0.4,0.4 v 3.2 c 0,0.220914 -0.179086,0.4 -0.4,0.4 z m 96,-4 H 128 v -4 h 7.6 c 0.22091,0 0.4,-0.179086 0.4,-0.4 v -7.2 c 0,-0.220914 0.17909,-0.4 0.4,-0.4 h 3.6 v 3.6 c 0,0.220914 0.17909,0.4 0.4,0.4 h 3.2 c 0.22091,0 0.4,-0.179086 0.4,-0.4 V 56.4 C 144,56.179086 143.82091,56 143.6,56 H 140 v -4 h 7.6 c 0.22091,0 0.4,0.179086 0.4,0.4 v 3.2 c 0,0.220914 0.17909,0.4 0.4,0.4 h 7.2 c 0.22091,0 0.4,-0.179086 0.4,-0.4 v -3.2 c 0,-0.220914 0.17909,-0.4 0.4,-0.4 h 3.6 v 3.6 c 0,0.220914 0.17909,0.4 0.4,0.4 h 3.2 c 0.22091,0 0.4,0.179086 0.4,0.4 v 3.2 c 0,0.220914 -0.17909,0.4 -0.4,0.4 h -7.2 c -0.22091,0 -0.4,0.179086 -0.4,0.4 V 64 h -4 v -3.6 c 0,-0.220914 -0.17909,-0.4 -0.4,-0.4 h -3.2 c -0.22091,0 -0.4,0.179086 -0.4,0.4 V 64 h -3.6 c -0.22091,0 -0.4,0.179086 -0.4,0.4 V 68 Z m -44,0 H 92 v -4 h 3.6 C 95.820914,64 96,63.820914 96,63.6 V 60.4 C 96,60.179086 96.179086,60 96.4,60 h 3.6 v 8 z m -24,0 H 68 V 64.4 C 68,64.179086 68.179086,64 68.4,64 h 3.2 C 71.820914,64 72,63.820914 72,63.6 V 52.4 C 72,52.179086 71.820914,52 71.6,52 H 64.4 C 64.179086,52 64,51.820914 64,51.6 V 40 h 4 v 7.6 c 0,0.220914 0.179086,0.4 0.4,0.4 h 3.2 C 71.820914,48 72,47.820914 72,47.6 V 40.4 C 72,40.179086 71.820914,40 71.6,40 H 68 V 36.4 C 68,36.179086 67.820914,36 67.6,36 H 64.4 C 64.179086,36 64,36.179086 64,36.4 V 40 H 60 V 36.4 C 60,36.179086 59.820914,36 59.6,36 H 56 v -8 h 3.6 C 59.820914,28 60,27.820914 60,27.6 V 20.4 C 60,20.179086 59.820914,20 59.6,20 H 48.4 C 48.179086,20 48,19.820914 48,19.6 V 16.4 C 48,16.179086 48.179086,16 48.4,16 h 15.2 c 0.220914,0 0.4,0.179086 0.4,0.4 v 3.2 c 0,0.220914 0.179086,0.4 0.4,0.4 h 3.2 C 67.820914,20 68,19.820914 68,19.6 V 16.4 C 68,16.179086 68.179086,16 68.4,16 h 11.2 c 0.220914,0 0.4,0.179086 0.4,0.4 v 7.2 C 80,23.820914 79.820914,24 79.6,24 H 76.4 C 76.179086,24 76,24.179086 76,24.4 v 3.2 c 0,0.220914 0.179086,0.4 0.4,0.4 h 3.2 c 0.220914,0 0.4,0.179086 0.4,0.4 v 7.2 C 80,35.820914 79.820914,36 79.6,36 H 76 V 32.4 C 76,32.179086 75.820914,32 75.6,32 H 72 V 28.4 C 72,28.179086 71.820914,28 71.6,28 H 68.4 C 68.179086,28 68,27.820914 68,27.6 V 24.4 C 68,24.179086 67.820914,24 67.6,24 H 64.4 C 64.179086,24 64,24.179086 64,24.4 v 7.2 c 0,0.220914 0.179086,0.4 0.4,0.4 H 72 v 3.6 c 0,0.220914 0.179086,0.4 0.4,0.4 H 76 v 11.6 c 0,0.220914 0.179086,0.4 0.4,0.4 h 11.2 c 0.220914,0 0.4,0.179086 0.4,0.4 v 3.2 C 88,51.820914 87.820914,52 87.6,52 H 76.4 C 76.179086,52 76,52.179086 76,52.4 v 7.2 c 0,0.220914 0.179086,0.4 0.4,0.4 h 3.2 c 0.220914,0 0.4,0.179086 0.4,0.4 v 3.2 C 80,63.820914 79.820914,64 79.6,64 H 76.4 C 76.179086,64 76,64.179086 76,64.4 v 3.2 C 76,67.820914 75.820914,68 75.6,68 Z M 32,67.6 V 64.4 C 32,64.179086 31.820914,64 31.6,64 H 28.4 C 28.179086,64 28,64.179086 28,64.4 v 3.2 c 0,0.220914 0.179086,0.4 0.4,0.4 h 3.2 C 31.820914,68 32,67.820914 32,67.6 Z M 91.6,64 H 84.4 C 84.179086,64 84,63.820914 84,63.6 V 56.4 C 84,56.179086 84.179086,56 84.4,56 H 92 v 8 z m -32,0 H 56.4 C 56.179086,64 56,63.820914 56,63.6 V 56.4 C 56,56.179086 55.820914,56 55.6,56 H 44 v -4 h 7.6 C 51.820914,52 52,51.820914 52,51.6 V 48.4 C 52,48.179086 51.820914,48 51.6,48 H 48.4 C 48.179086,48 48,47.820914 48,47.6 V 40.4 C 48,40.179086 48.179086,40 48.4,40 H 52 v 3.6 c 0,0.220914 0.179086,0.4 0.4,0.4 H 56 v 7.6 c 0,0.220914 0.179086,0.4 0.4,0.4 h 3.2 c 0.220914,0 0.4,0.179086 0.4,0.4 v 11.2 c 0,0.220914 -0.179086,0.4 -0.4,0.4 z m -12,0 H 44 v -4 h 3.6 c 0.220914,0 0.4,0.179086 0.4,0.4 v 3.2 c 0,0.220914 -0.179086,0.4 -0.4,0.4 z m 20,-4 H 64.4 C 64.179086,60 64,59.820914 64,59.6 V 56.4 C 64,56.179086 64.179086,56 64.4,56 h 3.2 c 0.220914,0 0.4,0.179086 0.4,0.4 v 3.2 c 0,0.220914 -0.179086,0.4 -0.4,0.4 z m 28,-4 H 92 V 44 h 4 v 3.6 c 0,0.220914 0.179086,0.4 0.4,0.4 h 3.2 c 0.220914,0 0.4,0.179086 0.4,0.4 v 3.2 c 0,0.220914 -0.179086,0.4 -0.4,0.4 H 96.4 C 96.179086,52 96,52.179086 96,52.4 v 3.2 c 0,0.220914 -0.179086,0.4 -0.4,0.4 z m -64,0 H 28 V 48.4 C 28,48.179086 28.179086,48 28.4,48 h 7.2 c 0.220914,0 0.4,0.179086 0.4,0.4 v 3.2 C 36,51.820914 35.820914,52 35.6,52 H 32.4 C 32.179086,52 32,52.179086 32,52.4 V 56 Z m -12,0 H 16.4 C 16.179086,56 16,55.820914 16,55.6 V 48.4 C 16,48.179086 16.179086,48 16.4,48 h 7.2 c 0.220914,0 0.4,0.179086 0.4,0.4 v 3.2 C 24,51.820914 23.820914,52 23.6,52 H 20.4 C 20.179086,52 20,52.179086 20,52.4 V 56 Z m 144,-4 H 160 v -3.6 c 0,-0.220914 0.17909,-0.4 0.4,-0.4 h 3.2 c 0.22091,0 0.4,0.179086 0.4,0.4 v 3.2 c 0,0.220914 -0.17909,0.4 -0.4,0.4 z m -24,0 h -3.2 c -0.22091,0 -0.4,-0.179086 -0.4,-0.4 v -3.2 c 0,-0.220914 0.17909,-0.4 0.4,-0.4 h 3.2 c 0.22091,0 0.4,0.179086 0.4,0.4 V 52 Z m -96,0 H 40.4 C 40.179086,52 40,51.820914 40,51.6 V 48.4 C 40,48.179086 40.179086,48 40.4,48 h 3.2 c 0.220914,0 0.4,0.179086 0.4,0.4 V 52 Z m 76,-4 H 116 v -4 h 4 v 3.6 c 0,0.220914 -0.17909,0.4 -0.4,0.4 z m 44,-4 H 136.4 C 136.17909,44 136,43.820914 136,43.6 V 16.4 c 0,-0.220914 0.17909,-0.4 0.4,-0.4 h 27.2 c 0.22091,0 0.4,0.179086 0.4,0.4 v 27.2 c 0,0.220914 -0.17909,0.4 -0.4,0.4 z m -32,0 h -3.2 c -0.22091,0 -0.4,-0.179086 -0.4,-0.4 v -3.2 c 0,-0.220914 0.17909,-0.4 0.4,-0.4 h 3.2 c 0.22091,0 0.4,0.179086 0.4,0.4 v 3.2 c 0,0.220914 -0.17909,0.4 -0.4,0.4 z m -8,0 H 120 v -4 h 3.6 c 0.22091,0 0.4,0.179086 0.4,0.4 v 3.2 c 0,0.220914 -0.17909,0.4 -0.4,0.4 z m -24,0 H 96 V 40.4 C 96,40.179086 96.179086,40 96.4,40 h 3.6 v 3.6 c 0,0.220914 -0.179086,0.4 -0.4,0.4 z m -8,0 H 88.4 C 88.179086,44 88,43.820914 88,43.6 V 40 h 3.6 c 0.220914,0 0.4,0.179086 0.4,0.4 V 44 Z m -8,0 H 80.4 C 80.179086,44 80,43.820914 80,43.6 V 40.4 C 80,40.179086 80.179086,40 80.4,40 H 84 v 3.6 c 0,0.220914 -0.179086,0.4 -0.4,0.4 z m -24,0 H 56 v -4 h 4 v 3.6 c 0,0.220914 -0.179086,0.4 -0.4,0.4 z m -16,0 H 16.4 C 16.179086,44 16,43.820914 16,43.6 V 16.4 C 16,16.179086 16.179086,16 16.4,16 h 27.2 c 0.220914,0 0.4,0.179086 0.4,0.4 V 43.6 C 44,43.820914 43.820914,44 43.6,44 Z M 160,39.6 V 20.4 c 0,-0.220914 -0.17909,-0.4 -0.4,-0.4 h -19.2 c -0.22091,0 -0.4,0.179086 -0.4,0.4 v 19.2 c 0,0.220914 0.17909,0.4 0.4,0.4 h 19.2 c 0.22091,0 0.4,-0.179086 0.4,-0.4 z M 87.6,40 H 84 V 36.4 C 84,36.179086 84.179086,36 84.4,36 H 88 v 4 z m -32,0 H 52 V 36.4 C 52,36.179086 52.179086,36 52.4,36 H 56 v 4 z M 40,39.6 V 20.4 C 40,20.179086 39.820914,20 39.6,20 H 20.4 C 20.179086,20 20,20.179086 20,20.4 v 19.2 c 0,0.220914 0.179086,0.4 0.4,0.4 H 39.6 C 39.820914,40 40,39.820914 40,39.6 Z M 155.6,36 H 144.4 C 144.17909,36 144,35.820914 144,35.6 V 24.4 c 0,-0.220914 0.17909,-0.4 0.4,-0.4 h 11.2 c 0.22091,0 0.4,0.179086 0.4,0.4 v 11.2 c 0,0.220914 -0.17909,0.4 -0.4,0.4 z m -24,0 h -3.2 c -0.22091,0 -0.4,-0.179086 -0.4,-0.4 v -3.2 c 0,-0.220914 0.17909,-0.4 0.4,-0.4 h 3.2 c 0.22091,0 0.4,0.179086 0.4,0.4 v 3.2 c 0,0.220914 -0.17909,0.4 -0.4,0.4 z m -36,0 H 88 v -4 h 8 v 3.6 c 0,0.220914 -0.179086,0.4 -0.4,0.4 z m -60,0 H 24.4 C 24.179086,36 24,35.820914 24,35.6 V 24.4 C 24,24.179086 24.179086,24 24.4,24 h 11.2 c 0.220914,0 0.4,0.179086 0.4,0.4 v 11.2 c 0,0.220914 -0.179086,0.4 -0.4,0.4 z m 84,-4 h -3.2 C 116.17909,32 116,31.820914 116,31.6 V 16.4 c 0,-0.220914 0.17909,-0.4 0.4,-0.4 h 3.2 c 0.22091,0 0.4,0.179086 0.4,0.4 v 3.2 c 0,0.220914 0.17909,0.4 0.4,0.4 h 3.2 c 0.22091,0 0.4,0.179086 0.4,0.4 V 24 h -3.6 c -0.22091,0 -0.4,0.179086 -0.4,0.4 v 7.2 c 0,0.220914 -0.17909,0.4 -0.4,0.4 z m -32,0 H 84.4 C 84.179086,32 84,31.820914 84,31.6 V 28.4 C 84,28.179086 84.179086,28 84.4,28 h 3.2 c 0.220914,0 0.4,0.179086 0.4,0.4 V 32 Z m 44,-4 h -7.2 C 124.17909,28 124,27.820914 124,27.6 V 24 h 7.6 c 0.22091,0 0.4,0.179086 0.4,0.4 v 3.2 c 0,0.220914 -0.17909,0.4 -0.4,0.4 z m -20,0 h -3.2 C 108.17909,28 108,27.820914 108,27.6 V 24 h 3.6 c 0.22091,0 0.4,0.179086 0.4,0.4 v 3.2 c 0,0.220914 -0.17909,0.4 -0.4,0.4 z m -56,0 H 52.4 C 52.179086,28 52,27.820914 52,27.6 V 24.4 C 52,24.179086 52.179086,24 52.4,24 h 3.2 c 0.220914,0 0.4,0.179086 0.4,0.4 V 28 Z m 52,-4 H 104 v -3.6 c 0,-0.220914 -0.17909,-0.4 -0.4,-0.4 h -3.2 c -0.22091,0 -0.4,-0.179086 -0.4,-0.4 v -3.2 c 0,-0.220914 0.17909,-0.4 0.4,-0.4 h 7.2 c 0.22091,0 0.4,0.179086 0.4,0.4 V 24 Z m -12,0 H 92.4 C 92.179086,24 92,23.820914 92,23.6 V 20 h 3.6 c 0.220914,0 0.4,0.179086 0.4,0.4 v 3.2 c 0,0.220914 -0.179086,0.4 -0.4,0.4 z m -8,0 H 84.4 C 84.179086,24 84,23.820914 84,23.6 V 20.4 C 84,20.179086 84.179086,20 84.4,20 H 88 v 3.6 c 0,0.220914 -0.179086,0.4 -0.4,0.4 z m 4,-4 H 88 V 16.4 C 88,16.179086 88.179086,16 88.4,16 h 3.2 c 0.220914,0 0.4,0.179086 0.4,0.4 V 20 Z"
           id="path838" />
      </g>
    </g>
  </g>
</svg>
