<?xml version="1.0" encoding="UTF-8" standalone="no"?>
<svg
   xmlns:dc="http://purl.org/dc/elements/1.1/"
   xmlns:cc="http://creativecommons.org/ns#"
   xmlns:rdf="http://www.w3.org/1999/02/22-rdf-syntax-ns#"
   xmlns:svg="http://www.w3.org/2000/svg"
   xmlns="http://www.w3.org/2000/svg"
   xmlns:sodipodi="http://sodipodi.sourceforge.net/DTD/sodipodi-0.dtd"
   xmlns:inkscape="http://www.inkscape.org/namespaces/inkscape"
   width="34.924957mm"
   height="34.924957mm"
   viewBox="0 0 34.924957 34.924957"
   version="1.1"
   id="svg8"
   sodipodi:docname="qrcode-mapcomplete-short-col.svg"
   inkscape:version="1.0.2 (e86c870879, 2021-01-15, custom)">
  <defs
     id="defs2" />
  <sodipodi:namedview
     id="base"
     pagecolor="#ffffff"
     bordercolor="#666666"
     borderopacity="1.0"
     inkscape:pageopacity="0.0"
     inkscape:pageshadow="2"
     inkscape:zoom="4.7323614"
     inkscape:cx="153.53287"
     inkscape:cy="43.774008"
     inkscape:document-units="mm"
     inkscape:current-layer="layer1"
     inkscape:document-rotation="0"
     showgrid="false"
     inkscape:window-width="1918"
     inkscape:window-height="1078"
     inkscape:window-x="-1"
     inkscape:window-y="-1"
     inkscape:window-maximized="1"
     fit-margin-top="0"
     fit-margin-left="0"
     fit-margin-right="0"
     fit-margin-bottom="0" />
  <metadata
     id="metadata5">
    <rdf:RDF>
      <cc:Work
         rdf:about="">
        <dc:format>image/svg+xml</dc:format>
        <dc:type
           rdf:resource="http://purl.org/dc/dcmitype/StillImage" />
        <dc:title></dc:title>
      </cc:Work>
    </rdf:RDF>
  </metadata>
  <g
     inkscape:label="Calque 1"
     inkscape:groupmode="layer"
     id="layer1"
     transform="translate(-105.833,-148.167)">
    <g
       inkscape:label="QR Code: https://link.infini.fr/vHX_KGBb"
       transform="matrix(0.264583,0,0,0.264583,105.833,148.167)"
       id="g19">
      <rect
         x="0"
         y="0"
         width="132"
         height="132"
         style="fill:#ffffff;stroke:none"
         id="rect13" />
      <g
         style="fill:#000000;stroke:none"
         id="g17">
        <path
           d="m 115.6,116 h -3.2 c -0.22091,0 -0.4,-0.17909 -0.4,-0.4 v -3.2 c 0,-0.22091 -0.17909,-0.4 -0.4,-0.4 H 104 v -3.6 c 0,-0.22091 -0.17909,-0.4 -0.4,-0.4 h -3.2 c -0.22091,0 -0.4,0.17909 -0.4,0.4 v 3.6 h -7.6 c -0.220914,0 -0.4,-0.17909 -0.4,-0.4 v -3.2 c 0,-0.22091 0.179086,-0.4 0.4,-0.4 h 3.2 c 0.220914,0 0.4,-0.17909 0.4,-0.4 v -3.2 c 0,-0.22091 0.179086,-0.4 0.4,-0.4 h 11.2 c 0.22091,0 0.4,-0.17909 0.4,-0.4 V 92.4 c 0,-0.220914 0.17909,-0.4 0.4,-0.4 h 3.6 v 7.6 c 0,0.220914 0.17909,0.4 0.4,0.4 h 3.2 c 0.22091,0 0.4,0.17909 0.4,0.4 v 15.2 c 0,0.22091 -0.17909,0.4 -0.4,0.4 z m -12,0 h -3.2 c -0.22091,0 -0.4,-0.17909 -0.4,-0.4 V 112 h 4 v 3.6 c 0,0.22091 -0.17909,0.4 -0.4,0.4 z m -20,0 H 76.4 C 76.179086,116 76,115.82091 76,115.6 V 112 h 8 v 3.6 c 0,0.22091 -0.179086,0.4 -0.4,0.4 z m -20,0 H 48.4 c -0.220914,0 -0.4,-0.17909 -0.4,-0.4 v -7.2 c 0,-0.22091 0.179086,-0.4 0.4,-0.4 H 56 v 3.6 c 0,0.22091 0.179086,0.4 0.4,0.4 h 7.2 c 0.220914,0 0.4,0.17909 0.4,0.4 v 3.2 c 0,0.22091 -0.179086,0.4 -0.4,0.4 z m -20,0 H 16.4 C 16.179086,116 16,115.82091 16,115.6 V 88.4 C 16,88.179086 16.179086,88 16.4,88 h 27.2 c 0.220914,0 0.4,0.179086 0.4,0.4 v 27.2 c 0,0.22091 -0.179086,0.4 -0.4,0.4 z m 44,-4 H 84 v -3.6 c 0,-0.22091 -0.179086,-0.4 -0.4,-0.4 h -3.2 c -0.220914,0 -0.4,-0.17909 -0.4,-0.4 v -3.2 c 0,-0.22091 0.179086,-0.4 0.4,-0.4 h 3.2 c 0.220914,0 0.4,-0.17909 0.4,-0.4 v -3.2 C 84,100.17909 83.820914,100 83.6,100 H 76 V 96.4 C 76,96.179086 75.820914,96 75.6,96 H 68.4 C 68.179086,96 68,96.179086 68,96.4 V 100 H 56 V 96.4 C 56,96.179086 56.179086,96 56.4,96 h 7.2 C 63.820914,96 64,95.820914 64,95.6 V 92.4 C 64,92.179086 63.820914,92 63.6,92 H 56.4 C 56.179086,92 56,91.820914 56,91.6 V 84.4 C 56,84.179086 56.179086,84 56.4,84 h 7.2 c 0.220914,0 0.4,0.179086 0.4,0.4 v 3.2 c 0,0.220914 0.179086,0.4 0.4,0.4 h 3.2 c 0.220914,0 0.4,0.179086 0.4,0.4 v 3.2 c 0,0.220914 0.179086,0.4 0.4,0.4 h 3.2 C 71.820914,92 72,91.820914 72,91.6 V 84 h 3.6 c 0.220914,0 0.4,0.179086 0.4,0.4 v 7.2 c 0,0.220914 0.179086,0.4 0.4,0.4 h 3.2 C 79.820914,92 80,91.820914 80,91.6 V 76 h 4 v 3.6 c 0,0.220914 0.179086,0.4 0.4,0.4 h 7.2 C 91.820914,80 92,79.820914 92,79.6 V 76.4 C 92,76.179086 92.179086,76 92.4,76 H 96 v 3.6 c 0,0.220914 0.179086,0.4 0.4,0.4 h 3.6 v 19.6 c 0,0.220914 -0.179086,0.4 -0.4,0.4 h -7.2 c -0.220914,0 -0.4,0.17909 -0.4,0.4 v 3.2 c 0,0.22091 -0.179086,0.4 -0.4,0.4 h -3.2 c -0.220914,0 -0.4,0.17909 -0.4,0.4 v 7.2 c 0,0.22091 -0.179086,0.4 -0.4,0.4 z m -12,0 H 72.4 C 72.179086,112 72,111.82091 72,111.6 V 108 h 3.6 c 0.220914,0 0.4,0.17909 0.4,0.4 V 112 Z M 40,111.6 V 92.4 C 40,92.179086 39.820914,92 39.6,92 H 20.4 C 20.179086,92 20,92.179086 20,92.4 v 19.2 c 0,0.22091 0.179086,0.4 0.4,0.4 h 19.2 c 0.220914,0 0.4,-0.17909 0.4,-0.4 z M 71.6,108 H 56 v -4 h 11.6 c 0.220914,0 0.4,-0.17909 0.4,-0.4 V 100 h 8 v 3.6 c 0,0.22091 -0.179086,0.4 -0.4,0.4 h -3.2 c -0.220914,0 -0.4,0.17909 -0.4,0.4 v 3.6 z m -36,0 H 24.4 C 24.179086,108 24,107.82091 24,107.6 V 96.4 C 24,96.179086 24.179086,96 24.4,96 h 11.2 c 0.220914,0 0.4,0.179086 0.4,0.4 v 11.2 c 0,0.22091 -0.179086,0.4 -0.4,0.4 z m 20,-4 H 48.4 C 48.179086,104 48,103.82091 48,103.6 V 96.4 C 48,96.179086 48.179086,96 48.4,96 h 3.2 c 0.220914,0 0.4,0.179086 0.4,0.4 v 3.2 c 0,0.220914 0.179086,0.4 0.4,0.4 H 56 v 4 z M 96,95.6 V 84.4 C 96,84.179086 95.820914,84 95.6,84 H 84.4 C 84.179086,84 84,84.179086 84,84.4 v 11.2 c 0,0.220914 0.179086,0.4 0.4,0.4 H 95.6 C 95.820914,96 96,95.820914 96,95.6 Z M 115.6,92 H 112 v -4 h 3.6 c 0.22091,0 0.4,0.179086 0.4,0.4 v 3.2 c 0,0.220914 -0.17909,0.4 -0.4,0.4 z m -24,0 H 88.4 C 88.179086,92 88,91.820914 88,91.6 V 88.4 C 88,88.179086 88.179086,88 88.4,88 h 3.2 c 0.220914,0 0.4,0.179086 0.4,0.4 v 3.2 c 0,0.220914 -0.179086,0.4 -0.4,0.4 z m 20,-4 h -7.2 C 104.17909,88 104,87.820914 104,87.6 V 80.4 C 104,80.179086 103.82091,80 103.6,80 H 100 V 76.4 C 100,76.179086 99.820914,76 99.6,76 H 96 v -8 h 3.6 c 0.220914,0 0.4,0.179086 0.4,0.4 v 3.2 c 0,0.220914 0.17909,0.4 0.4,0.4 h 7.2 c 0.22091,0 0.4,-0.179086 0.4,-0.4 v -3.2 c 0,-0.220914 0.17909,-0.4 0.4,-0.4 h 3.6 v 3.6 c 0,0.220914 0.17909,0.4 0.4,0.4 h 3.2 c 0.22091,0 0.4,0.179086 0.4,0.4 v 7.2 c 0,0.220914 -0.17909,0.4 -0.4,0.4 H 112 v -3.6 c 0,-0.220914 -0.17909,-0.4 -0.4,-0.4 h -3.2 c -0.22091,0 -0.4,0.179086 -0.4,0.4 v 3.2 c 0,0.220914 0.17909,0.4 0.4,0.4 h 3.6 v 8 z m -60,0 H 48.4 C 48.179086,88 48,87.820914 48,87.6 V 80.4 C 48,80.179086 47.820914,80 47.6,80 H 44 v -4 h 7.6 C 51.820914,76 52,75.820914 52,75.6 V 72 h 7.6 c 0.220914,0 0.4,0.179086 0.4,0.4 v 3.2 C 60,75.820914 59.820914,76 59.6,76 H 56.4 C 56.179086,76 56,76.179086 56,76.4 v 3.2 C 56,79.820914 55.820914,80 55.6,80 H 52.4 C 52.179086,80 52,80.179086 52,80.4 v 7.2 c 0,0.220914 -0.179086,0.4 -0.4,0.4 z m 20,-4 H 68.4 C 68.179086,84 68,83.820914 68,83.6 V 80 h 4 v 4 z m -28,0 H 36.4 C 36.179086,84 36,83.820914 36,83.6 V 80.4 C 36,80.179086 35.820914,80 35.6,80 H 32.4 C 32.179086,80 32,80.179086 32,80.4 v 3.2 C 32,83.820914 31.820914,84 31.6,84 H 24.4 C 24.179086,84 24,83.820914 24,83.6 V 80.4 C 24,80.179086 24.179086,80 24.4,80 h 3.2 C 27.820914,80 28,79.820914 28,79.6 V 76 h 12 v 3.6 c 0,0.220914 0.179086,0.4 0.4,0.4 H 44 v 3.6 c 0,0.220914 -0.179086,0.4 -0.4,0.4 z m -24,0 H 16.4 C 16.179086,84 16,83.820914 16,83.6 V 64.4 C 16,64.179086 16.179086,64 16.4,64 h 19.2 c 0.220914,0 0.4,0.179086 0.4,0.4 v 3.2 c 0,0.220914 0.179086,0.4 0.4,0.4 H 40 v 4 H 32.4 C 32.179086,72 32,71.820914 32,71.6 V 68.4 C 32,68.179086 31.820914,68 31.6,68 H 20.4 C 20.179086,68 20,68.179086 20,68.4 v 3.2 c 0,0.220914 0.179086,0.4 0.4,0.4 h 7.2 c 0.220914,0 0.4,0.179086 0.4,0.4 V 76 H 20.4 C 20.179086,76 20,76.179086 20,76.4 v 7.2 c 0,0.220914 -0.179086,0.4 -0.4,0.4 z m 56,-4 H 72 V 72.4 C 72,72.179086 71.820914,72 71.6,72 H 68 V 68.4 C 68,68.179086 68.179086,68 68.4,68 H 79.6 C 79.820914,68 80,67.820914 80,67.6 V 64 h 3.6 c 0.220914,0 0.4,0.179086 0.4,0.4 V 72 H 80.4 C 80.179086,72 80,72.179086 80,72.4 V 76 H 76.4 C 76.179086,76 76,76.179086 76,76.4 v 3.2 c 0,0.220914 -0.179086,0.4 -0.4,0.4 z m -8,0 H 64.4 C 64.179086,80 64,79.820914 64,79.6 V 72.4 C 64,72.179086 64.179086,72 64.4,72 H 68 v 8 z m 20,-4 H 84 v -4 h 3.6 c 0.220914,0 0.4,0.179086 0.4,0.4 v 3.2 c 0,0.220914 -0.179086,0.4 -0.4,0.4 z m -44,0 H 40 v -4 h 4 v 4 z m 8,-4 H 44 v -4 h 3.6 C 47.820914,68 48,67.820914 48,67.6 V 64 h 3.6 C 51.820914,64 52,63.820914 52,63.6 V 60 h 3.6 C 55.820914,60 56,59.820914 56,59.6 V 56.4 C 56,56.179086 55.820914,56 55.6,56 H 52.4 C 52.179086,56 52,56.179086 52,56.4 V 60 H 48 V 56.4 C 48,56.179086 47.820914,56 47.6,56 H 44 v -4 h 7.6 C 51.820914,52 52,51.820914 52,51.6 V 48 h 7.6 C 59.820914,48 60,47.820914 60,47.6 V 44 h 3.6 C 63.820914,44 64,43.820914 64,43.6 V 40 h 3.6 c 0.220914,0 0.4,0.179086 0.4,0.4 v 3.2 c 0,0.220914 0.179086,0.4 0.4,0.4 H 72 v 3.6 C 72,47.820914 71.820914,48 71.6,48 H 68.4 C 68.179086,48 68,48.179086 68,48.4 V 52 H 60.4 C 60.179086,52 60,52.179086 60,52.4 v 3.2 c 0,0.220914 0.179086,0.4 0.4,0.4 h 3.2 c 0.220914,0 0.4,0.179086 0.4,0.4 v 3.2 C 64,59.820914 63.820914,60 63.6,60 H 60.4 C 60.179086,60 60,60.179086 60,60.4 v 3.2 C 60,63.820914 59.820914,64 59.6,64 H 56.4 C 56.179086,64 56,64.179086 56,64.4 v 3.2 C 56,67.820914 55.820914,68 55.6,68 H 52.4 C 52.179086,68 52,68.179086 52,68.4 V 72 Z m 64,-4 H 112 V 64.4 C 112,64.179086 111.82091,64 111.6,64 H 96.4 C 96.179086,64 96,64.179086 96,64.4 V 68 H 88.4 C 88.179086,68 88,67.820914 88,67.6 V 60 h 7.6 C 95.820914,60 96,59.820914 96,59.6 V 56.4 C 96,56.179086 95.820914,56 95.6,56 H 92.4 C 92.179086,56 92,55.820914 92,55.6 V 52 h 20 v 4 h -7.6 c -0.22091,0 -0.4,0.179086 -0.4,0.4 v 3.2 c 0,0.220914 0.17909,0.4 0.4,0.4 h 7.2 c 0.22091,0 0.4,-0.179086 0.4,-0.4 V 56 h 3.6 c 0.22091,0 0.4,0.179086 0.4,0.4 v 11.2 c 0,0.220914 -0.17909,0.4 -0.4,0.4 z m -72,0 H 40 V 64.4 C 40,64.179086 40.179086,64 40.4,64 H 44 v 4 z m 36,-4 H 76.4 C 76.179086,64 76,63.820914 76,63.6 V 56.4 C 76,56.179086 75.820914,56 75.6,56 H 72.4 C 72.179086,56 72,56.179086 72,56.4 v 3.2 C 72,59.820914 71.820914,60 71.6,60 H 68.4 C 68.179086,60 68,59.820914 68,59.6 V 52 h 7.6 C 75.820914,52 76,51.820914 76,51.6 V 44 h 3.6 C 79.820914,44 80,43.820914 80,43.6 V 32.4 C 80,32.179086 79.820914,32 79.6,32 H 76 V 24.4 C 76,24.179086 76.179086,24 76.4,24 h 3.2 C 79.820914,24 80,23.820914 80,23.6 V 20.4 C 80,20.179086 80.179086,20 80.4,20 h 3.2 c 0.220914,0 0.4,0.179086 0.4,0.4 V 51.6 C 84,51.820914 83.820914,52 83.6,52 H 80.4 C 80.179086,52 80,52.179086 80,52.4 V 64 Z m -32,0 H 44 v -4 h 4 v 4 z m 40,-4 H 84.4 C 84.179086,60 84,59.820914 84,59.6 V 56.4 C 84,56.179086 84.179086,56 84.4,56 h 3.2 c 0.220914,0 0.4,0.179086 0.4,0.4 V 60 Z m -44,0 H 28.4 C 28.179086,60 28,59.820914 28,59.6 V 48.4 C 28,48.179086 28.179086,48 28.4,48 h 7.2 c 0.220914,0 0.4,0.179086 0.4,0.4 v 3.2 C 36,51.820914 35.820914,52 35.6,52 H 32.4 C 32.179086,52 32,52.179086 32,52.4 v 3.2 c 0,0.220914 0.179086,0.4 0.4,0.4 H 44 v 4 z m -20,0 H 20.4 C 20.179086,60 20,59.820914 20,59.6 V 56.4 C 20,56.179086 19.820914,56 19.6,56 H 16.4 C 16.179086,56 16,55.820914 16,55.6 V 48.4 C 16,48.179086 16.179086,48 16.4,48 h 7.2 c 0.220914,0 0.4,0.179086 0.4,0.4 v 11.2 c 0,0.220914 -0.179086,0.4 -0.4,0.4 z m 92,-8 H 112 v -3.6 c 0,-0.220914 0.17909,-0.4 0.4,-0.4 h 3.2 c 0.22091,0 0.4,0.179086 0.4,0.4 v 3.2 c 0,0.220914 -0.17909,0.4 -0.4,0.4 z m -24,0 H 88.4 C 88.179086,52 88,51.820914 88,51.6 V 48.4 C 88,48.179086 88.179086,48 88.4,48 h 3.2 c 0.220914,0 0.4,0.179086 0.4,0.4 V 52 Z m -48,0 H 40.4 C 40.179086,52 40,51.820914 40,51.6 V 48.4 C 40,48.179086 40.179086,48 40.4,48 h 3.2 c 0.220914,0 0.4,0.179086 0.4,0.4 V 52 Z m 8,-4 H 48.4 C 48.179086,48 48,47.820914 48,47.6 V 40.4 C 48,40.179086 48.179086,40 48.4,40 H 52 v 8 z m 64,-4 H 88.4 C 88.179086,44 88,43.820914 88,43.6 V 16.4 C 88,16.179086 88.179086,16 88.4,16 h 27.2 c 0.22091,0 0.4,0.179086 0.4,0.4 v 27.2 c 0,0.220914 -0.17909,0.4 -0.4,0.4 z m -40,0 H 72 V 40.4 C 72,40.179086 72.179086,40 72.4,40 h 3.2 c 0.220914,0 0.4,0.179086 0.4,0.4 V 44 Z m -16,0 H 56.4 C 56.179086,44 56,43.820914 56,43.6 V 40.4 C 56,40.179086 55.820914,40 55.6,40 H 52 V 20.4 C 52,20.179086 51.820914,20 51.6,20 H 48.4 C 48.179086,20 48,19.820914 48,19.6 V 16.4 C 48,16.179086 48.179086,16 48.4,16 h 15.2 c 0.220914,0 0.4,0.179086 0.4,0.4 v 3.2 C 64,19.820914 63.820914,20 63.6,20 H 56.4 C 56.179086,20 56,20.179086 56,20.4 v 3.2 c 0,0.220914 0.179086,0.4 0.4,0.4 h 7.2 c 0.220914,0 0.4,0.179086 0.4,0.4 V 28 H 56.4 C 56.179086,28 56,28.179086 56,28.4 v 7.2 c 0,0.220914 0.179086,0.4 0.4,0.4 h 3.2 C 59.820914,36 60,35.820914 60,35.6 V 32.4 C 60,32.179086 60.179086,32 60.4,32 H 64 v 8 H 60.4 C 60.179086,40 60,40.179086 60,40.4 V 44 Z m -16,0 H 16.4 C 16.179086,44 16,43.820914 16,43.6 V 16.4 C 16,16.179086 16.179086,16 16.4,16 h 27.2 c 0.220914,0 0.4,0.179086 0.4,0.4 V 43.6 C 44,43.820914 43.820914,44 43.6,44 Z M 112,39.6 V 20.4 C 112,20.179086 111.82091,20 111.6,20 H 92.4 C 92.179086,20 92,20.179086 92,20.4 v 19.2 c 0,0.220914 0.179086,0.4 0.4,0.4 h 19.2 c 0.22091,0 0.4,-0.179086 0.4,-0.4 z m -72,0 V 20.4 C 40,20.179086 39.820914,20 39.6,20 H 20.4 C 20.179086,20 20,20.179086 20,20.4 v 19.2 c 0,0.220914 0.179086,0.4 0.4,0.4 H 39.6 C 39.820914,40 40,39.820914 40,39.6 Z M 107.6,36 H 96.4 C 96.179086,36 96,35.820914 96,35.6 V 24.4 C 96,24.179086 96.179086,24 96.4,24 h 11.2 c 0.22091,0 0.4,0.179086 0.4,0.4 v 11.2 c 0,0.220914 -0.17909,0.4 -0.4,0.4 z m -32,0 H 68.4 C 68.179086,36 68,35.820914 68,35.6 V 32.4 C 68,32.179086 67.820914,32 67.6,32 H 64 v -4 h 3.6 C 67.820914,28 68,27.820914 68,27.6 V 24.4 C 68,24.179086 68.179086,24 68.4,24 h 3.2 c 0.220914,0 0.4,0.179086 0.4,0.4 v 7.2 c 0,0.220914 0.179086,0.4 0.4,0.4 H 76 v 3.6 c 0,0.220914 -0.179086,0.4 -0.4,0.4 z m -40,0 H 24.4 C 24.179086,36 24,35.820914 24,35.6 V 24.4 C 24,24.179086 24.179086,24 24.4,24 h 11.2 c 0.220914,0 0.4,0.179086 0.4,0.4 v 11.2 c 0,0.220914 -0.179086,0.4 -0.4,0.4 z m 40,-16 H 72.4 C 72.179086,20 72,19.820914 72,19.6 V 16.4 C 72,16.179086 72.179086,16 72.4,16 h 3.2 c 0.220914,0 0.4,0.179086 0.4,0.4 v 3.2 c 0,0.220914 -0.179086,0.4 -0.4,0.4 z"
           id="path15" />
      </g>
    </g>
  </g>
</svg>
