<?xml version="1.0" encoding="UTF-8" standalone="no"?>
<svg
   xmlns:dc="http://purl.org/dc/elements/1.1/"
   xmlns:cc="http://creativecommons.org/ns#"
   xmlns:rdf="http://www.w3.org/1999/02/22-rdf-syntax-ns#"
   xmlns:svg="http://www.w3.org/2000/svg"
   xmlns="http://www.w3.org/2000/svg"
   xmlns:sodipodi="http://sodipodi.sourceforge.net/DTD/sodipodi-0.dtd"
   xmlns:inkscape="http://www.inkscape.org/namespaces/inkscape"
   width="34.924957mm"
   height="34.924957mm"
   viewBox="0 0 34.924957 34.924957"
   version="1.1"
   id="svg874"
   sodipodi:docname="qrcode-mapcomplete.svg"
   inkscape:version="1.0.2 (e86c870879, 2021-01-15, custom)">
  <defs
     id="defs868" />
  <sodipodi:namedview
     id="base"
     pagecolor="#ffffff"
     bordercolor="#666666"
     borderopacity="1.0"
     inkscape:pageopacity="0.0"
     inkscape:pageshadow="2"
     inkscape:zoom="0.8284002"
     inkscape:cx="28.045835"
     inkscape:cy="52.593722"
     inkscape:document-units="mm"
     inkscape:current-layer="layer1"
     inkscape:document-rotation="0"
     showgrid="false"
     inkscape:window-width="1918"
     inkscape:window-height="1078"
     inkscape:window-x="-1"
     inkscape:window-y="-1"
     inkscape:window-maximized="1"
     fit-margin-top="0"
     fit-margin-left="0"
     fit-margin-right="0"
     fit-margin-bottom="0" />
  <metadata
     id="metadata871">
    <rdf:RDF>
      <cc:Work
         rdf:about="">
        <dc:format>image/svg+xml</dc:format>
        <dc:type
           rdf:resource="http://purl.org/dc/dcmitype/StillImage" />
        <dc:title></dc:title>
      </cc:Work>
    </rdf:RDF>
  </metadata>
  <g
     inkscape:label="Calque 1"
     inkscape:groupmode="layer"
     id="layer1"
     transform="translate(-105.833,-148.167)">
    <g
       inkscape:label="QR Code: https://mapcomplete.osm.be/"
       transform="matrix(0.264583,0,0,0.264583,105.833,148.167)"
       id="g1467">
      <rect
         x="0"
         y="0"
         width="132"
         height="132"
         style="fill:#ffffff;stroke:none"
         id="rect1461" />
      <g
         style="fill:#000000;stroke:none"
         id="g1465">
        <path
           d="m 115.6,116 h -11.2 c -0.22091,0 -0.4,-0.17909 -0.4,-0.4 v -3.2 c 0,-0.22091 -0.17909,-0.4 -0.4,-0.4 H 92.4 C 92.179086,112 92,111.82091 92,111.6 V 108 h 7.6 c 0.220914,0 0.4,-0.17909 0.4,-0.4 v -3.2 c 0,-0.22091 0.17909,-0.4 0.4,-0.4 h 3.6 v 3.6 c 0,0.22091 0.17909,0.4 0.4,0.4 h 3.2 c 0.22091,0 0.4,-0.17909 0.4,-0.4 v -3.2 c 0,-0.22091 -0.17909,-0.4 -0.4,-0.4 H 104 v -3.6 c 0,-0.22091 -0.17909,-0.4 -0.4,-0.4 h -7.2 c -0.220914,0 -0.4,0.17909 -0.4,0.4 v 3.2 c 0,0.22091 -0.179086,0.4 -0.4,0.4 h -3.2 c -0.220914,0 -0.4,0.17909 -0.4,0.4 v 3.6 h -3.6 c -0.220914,0 -0.4,0.17909 -0.4,0.4 v 7.2 c 0,0.22091 -0.179086,0.4 -0.4,0.4 h -3.2 c -0.220914,0 -0.4,-0.17909 -0.4,-0.4 v -11.2 c 0,-0.22091 -0.179086,-0.4 -0.4,-0.4 h -7.2 c -0.220914,0 -0.4,0.17909 -0.4,0.4 v 3.2 c 0,0.22091 0.179086,0.4 0.4,0.4 h 3.2 c 0.220914,0 0.4,0.17909 0.4,0.4 v 7.2 c 0,0.22091 -0.179086,0.4 -0.4,0.4 h -7.2 c -0.220914,0 -0.4,-0.17909 -0.4,-0.4 v -15.2 c 0,-0.22091 0.179086,-0.4 0.4,-0.4 h 7.2 c 0.220914,0 0.4,-0.179086 0.4,-0.4 V 84.4 C 80,84.179086 79.820914,84 79.6,84 H 76.4 C 76.179086,84 76,83.820914 76,83.6 V 80.4 C 76,80.179086 75.820914,80 75.6,80 H 72.4 C 72.179086,80 72,79.820914 72,79.6 V 76.4 C 72,76.179086 71.820914,76 71.6,76 H 68.4 C 68.179086,76 68,76.179086 68,76.4 V 84 H 64 V 80.4 C 64,80.179086 63.820914,80 63.6,80 H 60.4 C 60.179086,80 60,79.820914 60,79.6 V 68.4 C 60,68.179086 59.820914,68 59.6,68 H 56.4 C 56.179086,68 56,67.820914 56,67.6 V 60.4 C 56,60.179086 56.179086,60 56.4,60 H 60 v 3.6 c 0,0.220914 0.179086,0.4 0.4,0.4 h 3.2 C 63.820914,64 64,63.820914 64,63.6 V 60.4 C 64,60.179086 63.820914,60 63.6,60 H 60 v -4 h 3.6 C 63.820914,56 64,55.820914 64,55.6 V 52.4 C 64,52.179086 63.820914,52 63.6,52 H 60 V 48.4 C 60,48.179086 60.179086,48 60.4,48 h 3.2 C 63.820914,48 64,47.820914 64,47.6 V 40.4 C 64,40.179086 63.820914,40 63.6,40 H 60 V 36.4 C 60,36.179086 60.179086,36 60.4,36 h 7.2 C 67.820914,36 68,35.820914 68,35.6 V 28.4 C 68,28.179086 68.179086,28 68.4,28 h 7.2 C 75.820914,28 76,27.820914 76,27.6 V 24.4 C 76,24.179086 76.179086,24 76.4,24 H 80 v 3.6 c 0,0.220914 0.179086,0.4 0.4,0.4 h 3.2 c 0.220914,0 0.4,0.179086 0.4,0.4 v 7.2 C 84,35.820914 83.820914,36 83.6,36 H 72.4 C 72.179086,36 72,36.179086 72,36.4 V 40 H 68.4 C 68.179086,40 68,40.179086 68,40.4 v 15.2 c 0,0.220914 0.179086,0.4 0.4,0.4 h 3.2 C 71.820914,56 72,55.820914 72,55.6 V 40 h 3.6 c 0.220914,0 0.4,0.179086 0.4,0.4 v 3.2 c 0,0.220914 0.179086,0.4 0.4,0.4 H 80 v 7.6 c 0,0.220914 0.179086,0.4 0.4,0.4 h 3.2 c 0.220914,0 0.4,0.179086 0.4,0.4 v 3.2 c 0,0.220914 0.179086,0.4 0.4,0.4 h 3.2 c 0.220914,0 0.4,0.179086 0.4,0.4 v 3.2 C 88,59.820914 87.820914,60 87.6,60 H 84.4 C 84.179086,60 84,60.179086 84,60.4 v 3.2 c 0,0.220914 0.179086,0.4 0.4,0.4 h 7.2 C 91.820914,64 92,63.820914 92,63.6 V 56.4 C 92,56.179086 92.179086,56 92.4,56 H 96 v 3.6 c 0,0.220914 0.179086,0.4 0.4,0.4 h 3.6 v 4 H 96.4 C 96.179086,64 96,64.179086 96,64.4 V 68 H 88.4 C 88.179086,68 88,68.179086 88,68.4 v 11.2 c 0,0.220914 0.179086,0.4 0.4,0.4 h 3.2 C 91.820914,80 92,79.820914 92,79.6 V 72.4 C 92,72.179086 92.179086,72 92.4,72 h 3.2 C 95.820914,72 96,71.820914 96,71.6 V 68 h 4 v 3.6 c 0,0.220914 0.17909,0.4 0.4,0.4 h 7.6 v 3.6 c 0,0.220914 0.17909,0.4 0.4,0.4 h 3.2 c 0.22091,0 0.4,0.179086 0.4,0.4 v 3.2 c 0,0.220914 -0.17909,0.4 -0.4,0.4 h -3.2 c -0.22091,0 -0.4,0.179086 -0.4,0.4 v 3.2 c 0,0.220914 -0.17909,0.4 -0.4,0.4 h -7.2 c -0.22091,0 -0.4,0.179086 -0.4,0.4 v 7.2 c 0,0.220914 0.17909,0.4 0.4,0.4 h 7.2 c 0.22091,0 0.4,0.179086 0.4,0.4 v 7.2 c 0,0.220914 0.17909,0.4 0.4,0.4 h 7.2 c 0.22091,0 0.4,0.17909 0.4,0.4 v 3.2 c 0,0.22091 -0.17909,0.4 -0.4,0.4 h -3.2 c -0.22091,0 -0.4,0.17909 -0.4,0.4 v 7.2 c 0,0.22091 0.17909,0.4 0.4,0.4 h 3.2 c 0.22091,0 0.4,0.17909 0.4,0.4 v 3.2 c 0,0.22091 -0.17909,0.4 -0.4,0.4 z m -48,0 H 60.4 C 60.179086,116 60,115.82091 60,115.6 V 112 h 3.6 c 0.220914,0 0.4,-0.17909 0.4,-0.4 V 108 h 3.6 c 0.220914,0 0.4,0.17909 0.4,0.4 v 7.2 c 0,0.22091 -0.179086,0.4 -0.4,0.4 z m -12,0 h -7.2 c -0.220914,0 -0.4,-0.17909 -0.4,-0.4 v -7.2 c 0,-0.22091 0.179086,-0.4 0.4,-0.4 h 3.2 c 0.220914,0 0.4,-0.17909 0.4,-0.4 v -7.2 C 52,100.17909 51.820914,100 51.6,100 H 48.4 C 48.179086,100 48,99.820914 48,99.6 V 92.4 C 48,92.179086 48.179086,92 48.4,92 h 3.2 c 0.220914,0 0.4,0.179086 0.4,0.4 v 3.2 c 0,0.220914 0.179086,0.4 0.4,0.4 h 7.2 c 0.220914,0 0.4,0.179086 0.4,0.4 v 3.2 c 0,0.220914 0.179086,0.4 0.4,0.4 H 64 v 8 h -3.6 c -0.220914,0 -0.4,0.17909 -0.4,0.4 v 3.6 h -3.6 c -0.220914,0 -0.4,0.17909 -0.4,0.4 v 3.2 c 0,0.22091 -0.179086,0.4 -0.4,0.4 z m -12,0 H 16.4 C 16.179086,116 16,115.82091 16,115.6 V 88.4 C 16,88.179086 16.179086,88 16.4,88 h 27.2 c 0.220914,0 0.4,0.179086 0.4,0.4 v 27.2 c 0,0.22091 -0.179086,0.4 -0.4,0.4 z M 40,111.6 V 92.4 C 40,92.179086 39.820914,92 39.6,92 H 20.4 C 20.179086,92 20,92.179086 20,92.4 v 19.2 c 0,0.22091 0.179086,0.4 0.4,0.4 h 19.2 c 0.220914,0 0.4,-0.17909 0.4,-0.4 z M 35.6,108 H 24.4 C 24.179086,108 24,107.82091 24,107.6 V 96.4 C 24,96.179086 24.179086,96 24.4,96 h 11.2 c 0.220914,0 0.4,0.179086 0.4,0.4 v 11.2 c 0,0.22091 -0.179086,0.4 -0.4,0.4 z m 32,-8 H 64 V 96.4 C 64,96.179086 64.179086,96 64.4,96 h 3.2 c 0.220914,0 0.4,0.179086 0.4,0.4 v 3.2 c 0,0.220914 -0.179086,0.4 -0.4,0.4 z m 48,-4 h -3.2 c -0.22091,0 -0.4,-0.179086 -0.4,-0.4 v -3.2 c 0,-0.220914 0.17909,-0.4 0.4,-0.4 h 3.2 c 0.22091,0 0.4,0.179086 0.4,0.4 v 3.2 c 0,0.220914 -0.17909,0.4 -0.4,0.4 z M 96,95.6 V 84.4 C 96,84.179086 95.820914,84 95.6,84 H 84.4 C 84.179086,84 84,84.179086 84,84.4 v 11.2 c 0,0.220914 0.179086,0.4 0.4,0.4 H 95.6 C 95.820914,96 96,95.820914 96,95.6 Z M 75.6,96 H 72.4 C 72.179086,96 72,95.820914 72,95.6 V 92 h 3.6 c 0.220914,0 0.4,0.179086 0.4,0.4 v 3.2 c 0,0.220914 -0.179086,0.4 -0.4,0.4 z m 16,-4 H 88.4 C 88.179086,92 88,91.820914 88,91.6 V 88.4 C 88,88.179086 88.179086,88 88.4,88 h 3.2 c 0.220914,0 0.4,0.179086 0.4,0.4 v 3.2 c 0,0.220914 -0.179086,0.4 -0.4,0.4 z m -20,0 H 68.4 C 68.179086,92 68,91.820914 68,91.6 V 84 h 3.6 c 0.220914,0 0.4,0.179086 0.4,0.4 V 92 Z m -8,0 H 60.4 C 60.179086,92 60,91.820914 60,91.6 V 84.4 C 60,84.179086 60.179086,84 60.4,84 H 64 v 7.6 c 0,0.220914 -0.179086,0.4 -0.4,0.4 z m -8,-4 H 48.4 C 48.179086,88 48,87.820914 48,87.6 V 84 h 7.6 c 0.220914,0 0.4,0.179086 0.4,0.4 v 3.2 c 0,0.220914 -0.179086,0.4 -0.4,0.4 z m -8,-4 H 40.4 C 40.179086,84 40,83.820914 40,83.6 V 80 h 7.6 c 0.220914,0 0.4,0.179086 0.4,0.4 V 84 Z m -20,0 H 16.4 C 16.179086,84 16,83.820914 16,83.6 V 80.4 C 16,80.179086 16.179086,80 16.4,80 h 7.2 C 23.820914,80 24,79.820914 24,79.6 V 72 h 7.6 c 0.220914,0 0.4,0.179086 0.4,0.4 v 3.2 C 32,75.820914 31.820914,76 31.6,76 H 28.4 C 28.179086,76 28,76.179086 28,76.4 v 7.2 C 28,83.820914 27.820914,84 27.6,84 Z M 104,79.6 v -3.2 c 0,-0.220914 -0.17909,-0.4 -0.4,-0.4 h -3.2 c -0.22091,0 -0.4,0.179086 -0.4,0.4 v 3.2 c 0,0.220914 0.17909,0.4 0.4,0.4 h 3.2 c 0.22091,0 0.4,-0.179086 0.4,-0.4 z m -20,0 V 72.4 C 84,72.179086 83.820914,72 83.6,72 H 80.4 C 80.179086,72 80,72.179086 80,72.4 v 7.2 c 0,0.220914 0.179086,0.4 0.4,0.4 h 3.2 C 83.820914,80 84,79.820914 84,79.6 Z M 55.6,80 H 52.4 C 52.179086,80 52,79.820914 52,79.6 V 76.4 C 52,76.179086 52.179086,76 52.4,76 h 3.2 c 0.220914,0 0.4,0.179086 0.4,0.4 v 3.2 c 0,0.220914 -0.179086,0.4 -0.4,0.4 z m -16,0 H 36.4 C 36.179086,80 36,79.820914 36,79.6 V 68 h 4 v 3.6 c 0,0.220914 0.179086,0.4 0.4,0.4 h 3.2 c 0.220914,0 0.4,0.179086 0.4,0.4 v 3.2 C 44,75.820914 43.820914,76 43.6,76 H 40.4 C 40.179086,76 40,76.179086 40,76.4 V 80 Z m 72,-8 H 108 V 68.4 C 108,68.179086 107.82091,68 107.6,68 H 100 v -4 h 3.6 c 0.22091,0 0.4,-0.179086 0.4,-0.4 V 60.4 C 104,60.179086 103.82091,60 103.6,60 H 100 V 56.4 C 100,56.179086 99.820914,56 99.6,56 H 96 v -4 h 3.6 c 0.220914,0 0.4,-0.179086 0.4,-0.4 v -3.2 c 0,-0.220914 0.17909,-0.4 0.4,-0.4 h 15.2 c 0.22091,0 0.4,0.179086 0.4,0.4 v 3.2 c 0,0.220914 -0.17909,0.4 -0.4,0.4 h -3.2 c -0.22091,0 -0.4,0.179086 -0.4,0.4 v 3.2 c 0,0.220914 -0.17909,0.4 -0.4,0.4 H 108 v -3.6 c 0,-0.220914 -0.17909,-0.4 -0.4,-0.4 h -3.2 c -0.22091,0 -0.4,0.179086 -0.4,0.4 v 3.2 c 0,0.220914 0.17909,0.4 0.4,0.4 h 3.6 v 3.6 c 0,0.220914 0.17909,0.4 0.4,0.4 h 3.2 c 0.22091,0 0.4,0.179086 0.4,0.4 v 3.2 c 0,0.220914 0.17909,0.4 0.4,0.4 h 3.2 c 0.22091,0 0.4,0.179086 0.4,0.4 v 3.2 c 0,0.220914 -0.17909,0.4 -0.4,0.4 h -3.2 c -0.22091,0 -0.4,0.179086 -0.4,0.4 v 3.2 c 0,0.220914 -0.17909,0.4 -0.4,0.4 z M 72,71.6 V 68.4 C 72,68.179086 72.179086,68 72.4,68 h 7.2 C 79.820914,68 80,67.820914 80,67.6 V 64.4 C 80,64.179086 79.820914,64 79.6,64 H 76.4 C 76.179086,64 76,63.820914 76,63.6 V 60.4 C 76,60.179086 75.820914,60 75.6,60 H 68.4 C 68.179086,60 68,60.179086 68,60.4 v 11.2 c 0,0.220914 0.179086,0.4 0.4,0.4 h 3.2 C 71.820914,72 72,71.820914 72,71.6 Z M 51.6,72 H 48.4 C 48.179086,72 48,71.820914 48,71.6 V 68 h 3.6 c 0.220914,0 0.4,0.179086 0.4,0.4 v 3.2 c 0,0.220914 -0.179086,0.4 -0.4,0.4 z m -28,0 H 16.4 C 16.179086,72 16,71.820914 16,71.6 V 64.4 C 16,64.179086 16.179086,64 16.4,64 h 7.2 c 0.220914,0 0.4,0.179086 0.4,0.4 V 72 Z m 24,-4 H 40 V 64.4 C 40,64.179086 40.179086,64 40.4,64 h 3.2 C 43.820914,64 44,63.820914 44,63.6 V 60 h 4 v 8 z m -12,0 H 28.4 C 28.179086,68 28,67.820914 28,67.6 V 60.4 C 28,60.179086 27.820914,60 27.6,60 H 24.4 C 24.179086,60 24,59.820914 24,59.6 V 56.4 C 24,56.179086 23.820914,56 23.6,56 H 20.4 C 20.179086,56 20,56.179086 20,56.4 v 3.2 C 20,59.820914 19.820914,60 19.6,60 H 16.4 C 16.179086,60 16,59.820914 16,59.6 V 48.4 C 16,48.179086 16.179086,48 16.4,48 h 7.2 c 0.220914,0 0.4,0.179086 0.4,0.4 v 3.2 c 0,0.220914 0.179086,0.4 0.4,0.4 H 32 v 3.6 c 0,0.220914 0.179086,0.4 0.4,0.4 h 3.2 C 35.820914,56 36,55.820914 36,55.6 V 52.4 C 36,52.179086 35.820914,52 35.6,52 H 32 V 48.4 C 32,48.179086 32.179086,48 32.4,48 h 11.2 c 0.220914,0 0.4,0.179086 0.4,0.4 V 52 H 40.4 C 40.179086,52 40,52.179086 40,52.4 v 3.2 c 0,0.220914 0.179086,0.4 0.4,0.4 H 44 v 4 H 32.4 C 32.179086,60 32,60.179086 32,60.4 v 3.2 c 0,0.220914 0.179086,0.4 0.4,0.4 h 3.2 c 0.220914,0 0.4,0.179086 0.4,0.4 V 68 Z m 16,-8 H 48 V 56.4 C 48,56.179086 47.820914,56 47.6,56 H 44 v -4 h 16 v 4 H 52.4 C 52.179086,56 52,56.179086 52,56.4 v 3.2 c 0,0.220914 -0.179086,0.4 -0.4,0.4 z m 44,-8 H 92.4 C 92.179086,52 92,51.820914 92,51.6 V 48.4 C 92,48.179086 92.179086,48 92.4,48 h 3.2 c 0.220914,0 0.4,0.179086 0.4,0.4 V 52 Z m -40,-4 H 52.4 C 52.179086,48 52,47.820914 52,47.6 V 44 h 4 v 3.6 c 0,0.220914 -0.179086,0.4 -0.4,0.4 z m 60,-4 H 88.4 C 88.179086,44 88,43.820914 88,43.6 V 16.4 C 88,16.179086 88.179086,16 88.4,16 h 27.2 c 0.22091,0 0.4,0.179086 0.4,0.4 v 27.2 c 0,0.220914 -0.17909,0.4 -0.4,0.4 z m -32,0 H 80 V 40.4 C 80,40.179086 80.179086,40 80.4,40 h 3.2 c 0.220914,0 0.4,0.179086 0.4,0.4 v 3.2 c 0,0.220914 -0.179086,0.4 -0.4,0.4 z m -24,0 H 56 V 40.4 C 56,40.179086 56.179086,40 56.4,40 H 60 v 3.6 c 0,0.220914 -0.179086,0.4 -0.4,0.4 z m -8,0 H 48.4 C 48.179086,44 48,43.820914 48,43.6 V 36.4 C 48,36.179086 48.179086,36 48.4,36 h 3.2 c 0.220914,0 0.4,0.179086 0.4,0.4 V 44 Z m -8,0 H 16.4 C 16.179086,44 16,43.820914 16,43.6 V 16.4 C 16,16.179086 16.179086,16 16.4,16 h 27.2 c 0.220914,0 0.4,0.179086 0.4,0.4 V 43.6 C 44,43.820914 43.820914,44 43.6,44 Z M 112,39.6 V 20.4 C 112,20.179086 111.82091,20 111.6,20 H 92.4 C 92.179086,20 92,20.179086 92,20.4 v 19.2 c 0,0.220914 0.179086,0.4 0.4,0.4 h 19.2 c 0.22091,0 0.4,-0.179086 0.4,-0.4 z m -72,0 V 20.4 C 40,20.179086 39.820914,20 39.6,20 H 20.4 C 20.179086,20 20,20.179086 20,20.4 v 19.2 c 0,0.220914 0.179086,0.4 0.4,0.4 H 39.6 C 39.820914,40 40,39.820914 40,39.6 Z M 107.6,36 H 96.4 C 96.179086,36 96,35.820914 96,35.6 V 24.4 C 96,24.179086 96.179086,24 96.4,24 h 11.2 c 0.22091,0 0.4,0.179086 0.4,0.4 v 11.2 c 0,0.220914 -0.17909,0.4 -0.4,0.4 z m -72,0 H 24.4 C 24.179086,36 24,35.820914 24,35.6 V 24.4 C 24,24.179086 24.179086,24 24.4,24 h 11.2 c 0.220914,0 0.4,0.179086 0.4,0.4 v 11.2 c 0,0.220914 -0.179086,0.4 -0.4,0.4 z m 28,-4 H 60.4 C 60.179086,32 60,31.820914 60,31.6 V 28.4 C 60,28.179086 59.820914,28 59.6,28 H 56 V 24.4 C 56,24.179086 55.820914,24 55.6,24 H 52.4 C 52.179086,24 52,24.179086 52,24.4 v 3.2 c 0,0.220914 0.179086,0.4 0.4,0.4 H 56 v 3.6 C 56,31.820914 55.820914,32 55.6,32 H 48.4 C 48.179086,32 48,31.820914 48,31.6 V 16.4 C 48,16.179086 48.179086,16 48.4,16 h 11.2 c 0.220914,0 0.4,0.179086 0.4,0.4 v 7.2 c 0,0.220914 0.179086,0.4 0.4,0.4 h 3.2 c 0.220914,0 0.4,0.179086 0.4,0.4 v 7.2 c 0,0.220914 -0.179086,0.4 -0.4,0.4 z m 20,-8 H 80 V 20.4 C 80,20.179086 79.820914,20 79.6,20 H 76.4 C 76.179086,20 76,19.820914 76,19.6 V 16.4 C 76,16.179086 76.179086,16 76.4,16 h 7.2 c 0.220914,0 0.4,0.179086 0.4,0.4 v 7.2 c 0,0.220914 -0.179086,0.4 -0.4,0.4 z m -12,0 H 68.4 C 68.179086,24 68,23.820914 68,23.6 V 20.4 C 68,20.179086 67.820914,20 67.6,20 H 64.4 C 64.179086,20 64,19.820914 64,19.6 V 16.4 C 64,16.179086 64.179086,16 64.4,16 h 7.2 c 0.220914,0 0.4,0.179086 0.4,0.4 v 7.2 c 0,0.220914 -0.179086,0.4 -0.4,0.4 z"
           id="path1463" />
      </g>
    </g>
  </g>
</svg>
