<?xml version="1.0" encoding="UTF-8" standalone="no"?>
<!-- Created with Inkscape (http://www.inkscape.org/) -->

<svg
   width="256"
   height="32"
   viewBox="0 0 67.733334 8.4666667"
   version="1.1"
   id="svg5"
   inkscape:version="1.1 (c4e8f9ed74, 2021-05-24)"
   sodipodi:docname="tilemap.svg"
   inkscape:export-filename="tilemap.png"
   inkscape:export-xdpi="96"
   inkscape:export-ydpi="96"
   xmlns:inkscape="http://www.inkscape.org/namespaces/inkscape"
   xmlns:sodipodi="http://sodipodi.sourceforge.net/DTD/sodipodi-0.dtd"
   xmlns:xlink="http://www.w3.org/1999/xlink"
   xmlns="http://www.w3.org/2000/svg"
   xmlns:svg="http://www.w3.org/2000/svg">
  <sodipodi:namedview
     id="namedview7"
     pagecolor="#505050"
     bordercolor="#eeeeee"
     borderopacity="1"
     inkscape:pageshadow="0"
     inkscape:pageopacity="0"
     inkscape:pagecheckerboard="0"
     inkscape:document-units="mm"
     showgrid="true"
     units="px"
     height="256px"
     inkscape:snap-global="false"
     inkscape:zoom="3.0372601"
     inkscape:cx="122.14956"
     inkscape:cy="66.178065"
     inkscape:window-width="1112"
     inkscape:window-height="1078"
     inkscape:window-x="959"
     inkscape:window-y="-1"
     inkscape:window-maximized="1"
     inkscape:current-layer="layer1">
    <inkscape:grid
       type="xygrid"
       id="grid9"
       empspacing="32"
       empcolor="#950dff"
       empopacity="0.25098039" />
  </sodipodi:namedview>
  <defs
     id="defs2">
    <linearGradient
       inkscape:collect="always"
       id="linearGradient1666">
      <stop
         style="stop-color:#888a85;stop-opacity:1;"
         offset="0"
         id="stop1662" />
      <stop
         style="stop-color:#2e3436;stop-opacity:1"
         offset="1"
         id="stop1664" />
    </linearGradient>
    <linearGradient
       inkscape:collect="always"
       xlink:href="#linearGradient1666"
       id="linearGradient1668"
       x1="16.933332"
       y1="0"
       x2="25.4"
       y2="8.4666662"
       gradientUnits="userSpaceOnUse" />
  </defs>
  <g
     inkscape:label="Calque 1"
     inkscape:groupmode="layer"
     id="layer1">
    <rect
       style="fill:#000000;fill-opacity:1;stroke:none;stroke-width:0.264583;stroke-linejoin:round;paint-order:fill markers stroke;stop-color:#000000"
       id="rect77"
       width="8.4666662"
       height="8.4666662"
       x="25.399998"
       y="0" />
    <rect
       style="fill:#eeeeec;fill-opacity:1;stroke:none;stroke-width:0.264583;stroke-linejoin:round;paint-order:fill markers stroke;stop-color:#000000"
       id="rect1164"
       width="8.4666662"
       height="8.4666662"
       x="-5.6823097e-07"
       y="0" />
    <rect
       style="fill:#ffffff;fill-opacity:1;stroke:none;stroke-width:0.264583;stroke-linejoin:round;paint-order:fill markers stroke;stop-color:#000000"
       id="rect1290"
       width="6.8791666"
       height="6.8791666"
       x="0.79374927"
       y="0.79374993"
       ry="0.79375005"
       rx="0.79375005" />
    <rect
       style="fill:url(#linearGradient1668);fill-opacity:1;stroke:none;stroke-width:0.264583;stroke-linejoin:round;paint-order:fill markers stroke;stop-color:#000000"
       id="rect1556"
       width="8.4666662"
       height="8.4666662"
       x="16.933332"
       y="1.174986e-16" />
    <rect
       style="fill:#555753;fill-opacity:1;stroke:none;stroke-width:0.264583;stroke-linejoin:round;paint-order:fill markers stroke;stop-color:#000000"
       id="rect1558"
       width="4.2333331"
       height="4.2333331"
       x="19.049999"
       y="2.1166666" />
    <rect
       style="fill:#eeeeec;fill-opacity:1;stroke:none;stroke-width:0.264583;stroke-linejoin:round;paint-order:fill markers stroke;stop-color:#000000"
       id="rect1920"
       width="8.4666662"
       height="8.4666662"
       x="33.866665"
       y="2.3499719e-16" />
    <rect
       style="fill:#ffffff;fill-opacity:1;stroke:none;stroke-width:0.264583;stroke-linejoin:round;paint-order:fill markers stroke;stop-color:#000000"
       id="rect1922"
       width="6.8791666"
       height="6.8791666"
       x="34.660416"
       y="0.79374993"
       ry="0.79375005"
       rx="0.79375005" />
    <g
       id="g10050"
       transform="translate(-16.933334)">
      <rect
         style="fill:#eeeeec;fill-opacity:1;stroke:none;stroke-width:0.264583;stroke-linejoin:round;paint-order:fill markers stroke;stop-color:#000000"
         id="rect1916"
         width="8.4666662"
         height="8.4666662"
         x="25.4"
         y="2.3499719e-16" />
      <rect
         style="fill:#fac1c1;fill-opacity:1;stroke:none;stroke-width:0.264583;stroke-linejoin:round;paint-order:fill markers stroke;stop-color:#000000"
         id="rect1918"
         width="6.8791666"
         height="6.8791666"
         x="26.19375"
         y="0.79374993"
         ry="0.79375005"
         rx="0.79375005" />
      <circle
         style="fill:#ffffff;fill-opacity:1;stroke:none;stroke-width:0.264582;stroke-linejoin:round;paint-order:fill markers stroke;stop-color:#000000"
         id="path2216"
         cx="28.076765"
         cy="5.6392045"
         r="1.4747921" />
      <rect
         style="fill:#babdb6;fill-opacity:1;stroke:none;stroke-width:0.264583;stroke-linejoin:round;paint-order:fill markers stroke;stop-color:#000000"
         id="rect2408"
         width="1.4600109"
         height="5.4750409"
         x="27.346756"
         y="0.52916664"
         ry="0.52916664"
         rx="0.52916664" />
      <path
         style="fill:#ef2929;stroke:#cc0000;stroke-width:0.265;stroke-linecap:round;stroke-linejoin:round;stroke-miterlimit:4;stroke-dasharray:none;stroke-opacity:1"
         d="m 28.076762,1.2591721 c 3.285025,-0.3650027 4.380033,1.0950083 5.475041,2.1900164 -2.190016,-0.3650027 -3.285025,1.0950082 -5.110039,1.0950082 0.807255,-1.1187248 2e-6,-2.5550191 -0.365002,-3.2850246 z"
         id="path2487"
         sodipodi:nodetypes="cccc" />
    </g>
    <path
       d="m 37.450798,4.9830572 q 0,-0.3500358 0.147015,-0.58806 0.147015,-0.2380243 0.504052,-0.4970508 0.315032,-0.2240227 0.448045,-0.3850392 0.14002,-0.1680171 0.14002,-0.3920401 0,-0.2240229 -0.168017,-0.3360342 -0.161022,-0.1190128 -0.455047,-0.1190128 -0.294031,0 -0.581059,0.091009 -0.28703,0.091009 -0.588061,0.2450249 L 36.526704,2.2527785 q 0.343035,-0.1890193 0.742076,-0.3080314 0.39904,-0.1190128 0.875089,-0.1190128 0.728074,0 1.127115,0.3500357 0.406041,0.3500358 0.406041,0.8890908 0,0.2870293 -0.091,0.4970507 -0.091,0.2100215 -0.273028,0.3920399 -0.182019,0.175018 -0.455045,0.3780388 -0.203022,0.1470151 -0.315033,0.2520256 -0.112006,0.1050108 -0.15401,0.2030208 -0.03501,0.098011 -0.03501,0.2450249 v 0.2030208 h -0.903093 z m -0.112006,1.4211451 q 0,-0.3220329 0.175017,-0.4480457 0.175018,-0.1330131 0.427044,-0.1330131 0.245025,0 0.420043,0.1330131 0.175017,0.126013 0.175017,0.4480457 0,0.3080315 -0.175017,0.4480458 -0.175018,0.1330131 -0.420043,0.1330131 -0.252026,0 -0.427044,-0.1330131 -0.175022,-0.140015 -0.175022,-0.4480458 z"
       style="font-weight:bold;font-size:4.23333px;line-height:1.25;font-family:'Noto Sans';-inkscape-font-specification:'Noto Sans';text-align:center;letter-spacing:0px;word-spacing:0px;text-anchor:middle;stroke-width:0.264583"
       id="path7211" />
    <rect
       style="fill:#eeeeec;fill-opacity:1;stroke:none;stroke-width:0.264583;stroke-linejoin:round;paint-order:fill markers stroke;stop-color:#000000"
       id="rect840"
       width="8.4666662"
       height="8.4666662"
       x="42.333332"
       y="2.3499719e-16" />
    <rect
       style="fill:#ffffff;fill-opacity:1;stroke:none;stroke-width:0.264583;stroke-linejoin:round;paint-order:fill markers stroke;stop-color:#000000"
       id="rect842"
       width="6.8791666"
       height="6.8791666"
       x="43.127083"
       y="0.79374993"
       ry="0.79375005"
       rx="0.79375005" />
    <circle
       style="fill:#fac3c3;stroke:#cc0000;stroke-width:0.52916667;stroke-linecap:round;stroke-linejoin:round;paint-order:fill markers stroke;stop-color:#000000;fill-opacity:1;stroke-miterlimit:4;stroke-dasharray:none"
       id="path13191"
       cx="46.52478"
       cy="4.3978853"
       r="2.889693" />
    <g
       id="g4773"
       transform="matrix(0.98469449,0.01851259,0.11648641,0.89691604,-0.1283379,-0.49617375)"
       style="stroke-width:1.06538">
      <path
         d="m 47.46585,6.3448355 q -0.196112,0.090831 -0.354678,0.1589525 -0.154392,0.068122 -0.283739,0.1135376 -0.129361,0.048659 -0.23367,0.071366 -0.10433,0.022707 -0.196112,0.022707 -0.141869,0 -0.225324,-0.1038061 -0.08346,-0.1005622 -0.08346,-0.2757339 0,-0.097318 0.02921,-0.2757339 0.03338,-0.18166 0.07927,-0.3990034 0.0459,-0.220587 0.10014,-0.4573939 0.05424,-0.2400508 0.10014,-0.4541501 0.04591,-0.2173432 0.07511,-0.3827835 0.03338,-0.1686843 0.03338,-0.2497826 0,-0.07461 -0.01256,-0.1167814 -0.01256,-0.045416 -0.0334,-0.064879 -0.02088,-0.022707 -0.05424,-0.029197 -0.0334,-0.00648 -0.07094,-0.00648 -0.0334,0 -0.10433,0.012978 -0.06676,0.00973 -0.137694,0.025951 -0.07927,0.016219 -0.175259,0.038928 L 45.859271,3.853507 q 0.175261,-0.061635 0.346333,-0.1167814 0.175258,-0.05839 0.325468,-0.1005623 0.150202,-0.042171 0.262878,-0.068122 0.112664,-0.025951 0.166902,-0.025951 0.116838,0 0.162744,0.061635 0.05006,0.061635 0.05006,0.2108554 0,0.094075 -0.0334,0.2789779 -0.02921,0.18166 -0.07927,0.4087351 -0.05008,0.2270751 -0.104331,0.4768574 -0.05424,0.2465388 -0.10433,0.4736136 -0.05008,0.2270751 -0.08346,0.4119791 -0.0292,0.18166 -0.0292,0.2757339 0,0.1005623 0.02503,0.1459777 0.0292,0.045415 0.10014,0.045415 0.129361,0 0.246187,-0.02595 0.120997,-0.025951 0.292088,-0.081098 z M 47.578514,2.48456 q 0,0.090831 -0.03754,0.18166 -0.0334,0.087587 -0.10014,0.1621965 -0.06676,0.071366 -0.162745,0.1167814 -0.09596,0.045416 -0.212804,0.045416 -0.129362,0 -0.200292,-0.05839 -0.07094,-0.05839 -0.07094,-0.1686843 0,-0.087587 0.03754,-0.1751722 0.03755,-0.090831 0.10433,-0.1654404 0.06676,-0.07461 0.158565,-0.1200252 0.09597,-0.048659 0.212806,-0.048659 0.129362,0 0.200292,0.061635 0.07094,0.05839 0.07094,0.1686842 z"
         style="font-style:italic;font-size:4.23333px;line-height:1.25;font-family:'Gentium Plus';-inkscape-font-specification:'Gentium Plus Italic';text-align:center;letter-spacing:0px;word-spacing:0px;text-anchor:middle;fill:#cc0000;stroke-width:0.28188"
         id="path11751" />
    </g>
  </g>
</svg>
